<svg
  width="456"
  height="333"
  viewBox="0 0 456 333"
  fill="none"
  xmlns="http://www.w3.org/2000/svg"
>
  <g clip-path="url(#clip0)">
    <path
      opacity="0.1"
      d="M45.8682 33.3459C43.0301 34.5015 40.1174 35.9848 38.5577 38.5848C36.9058 41.3315 37.1035 44.7422 37.4111 47.92C40.091 75.4813 47.1511 104.793 34.9596 129.759C29.0418 141.871 19.1437 151.577 11.2708 162.576C3.39801 173.576 -2.54615 187.309 1.10909 200.249C5.5727 216.061 22.2322 224.827 33.4615 236.995C40.8115 244.95 45.9649 254.617 52.8228 262.986C59.6808 271.356 69.0781 278.729 80.0263 279.221C95.7719 279.932 108.583 266.587 124.021 263.495C139.837 260.33 155.763 268.385 168.587 278.026C181.411 287.667 193.075 299.348 208.017 305.368C224.518 312.021 243.119 311.003 260.491 315C276.307 318.644 290.866 326.392 306.568 330.523C322.269 334.654 340.673 334.404 352.838 323.852C368.694 310.055 367.446 285.477 377.572 267.225C386.979 250.266 405.391 240.142 417.785 225.15C440.085 198.166 439.356 156.924 420.421 127.577C401.485 98.2307 367.187 80.4615 332.115 75.8349C316.299 73.7523 300.013 74.0369 284.808 69.2981C244.108 56.6213 219.888 11.2003 178.336 1.7487C151.923 -4.24908 126.235 6.13816 103.737 18.9228C84.2087 30.0215 66.1917 25.0715 45.8682 33.3459Z"
      fill="#B3157B"
    />
    <path
      d="M85.5291 122.383C85.5291 122.383 70.5347 136.272 54.442 136.686C47.6842 136.818 41.1525 139.098 35.8275 143.184C33.3105 145.137 30.9811 147.312 28.8685 149.682"
      stroke="#535461"
      stroke-width="2"
      stroke-miterlimit="10"
    />
    <path
      d="M18.7199 150.022C20.8814 148.944 29.1321 149.66 29.1321 149.66C29.1321 149.66 24.853 156.624 22.6915 157.702C22.1738 158.003 21.5986 158.196 21.0016 158.27C20.4045 158.344 19.7983 158.297 19.2206 158.132C18.6429 157.966 18.106 157.686 17.6432 157.309C17.1804 156.931 16.8015 156.464 16.5301 155.937C16.2587 155.41 16.1005 154.834 16.0653 154.244C16.0302 153.655 16.1189 153.064 16.3259 152.51C16.5328 151.955 16.8537 151.448 17.2685 151.02C17.6834 150.592 18.1834 150.253 18.7375 150.022H18.7199Z"
      fill="#B3157B"
    />
    <path
      d="M27.4055 137.712C29.8175 137.962 36.3459 142.964 36.3459 142.964C36.3459 142.964 28.8773 146.525 26.4873 146.28C25.3692 146.114 24.3592 145.531 23.6676 144.653C22.9761 143.775 22.6561 142.669 22.7744 141.565C22.8927 140.461 23.4401 139.445 24.3027 138.727C25.1653 138.009 26.2767 137.646 27.4055 137.712Z"
      fill="#B3157B"
    />
    <path
      d="M48.0014 127.79C49.952 129.2 53.0186 136.755 53.0186 136.755C53.0186 136.755 44.7547 136.138 42.8041 134.732C41.9249 134.035 41.3533 133.032 41.2081 131.932C41.063 130.832 41.3555 129.719 42.0248 128.825C42.694 127.931 43.6886 127.325 44.8017 127.132C45.9148 126.939 47.0608 127.175 48.0014 127.79Z"
      fill="#B3157B"
    />
    <path
      d="M65.3067 123.733C67.4726 124.798 71.7956 131.736 71.7956 131.736C71.7956 131.736 63.5449 132.499 61.379 131.434C60.8326 131.2 60.3404 130.859 59.9325 130.432C59.5246 130.005 59.2095 129.501 59.0064 128.951C58.8033 128.4 58.7165 127.815 58.7513 127.231C58.786 126.647 58.9416 126.076 59.2085 125.552C59.4754 125.029 59.8481 124.564 60.3038 124.187C60.7596 123.81 61.2888 123.527 61.8594 123.357C62.4299 123.187 63.0298 123.132 63.6224 123.197C64.2151 123.262 64.7881 123.444 65.3067 123.733Z"
      fill="#B3157B"
    />
    <path
      d="M40.9369 150.816C41.6574 148.543 39.5486 140.678 39.5486 140.678C39.5486 140.678 33.275 145.991 32.5545 148.263C32.3514 148.811 32.264 149.395 32.2973 149.977C32.3307 150.56 32.4841 151.13 32.7485 151.652C33.0128 152.175 33.3825 152.64 33.8351 153.018C34.2878 153.396 34.814 153.681 35.3818 153.854C35.9497 154.027 36.5474 154.085 37.1387 154.024C37.7301 153.964 38.3028 153.786 38.8222 153.502C39.3415 153.218 39.7967 152.833 40.1603 152.372C40.5238 151.91 40.788 151.381 40.9369 150.816Z"
      fill="#B3157B"
    />
    <path
      d="M61.1154 145.801C61.1154 143.421 56.7002 136.539 56.7002 136.539C56.7002 136.539 52.3332 143.438 52.3376 145.827C52.3411 146.97 52.8073 148.066 53.6337 148.872C54.4601 149.678 55.5789 150.129 56.7441 150.126C57.9093 150.122 59.0253 149.665 59.8468 148.854C60.6682 148.043 61.1277 146.945 61.1242 145.801H61.1154Z"
      fill="#B3157B"
    />
    <path
      d="M80.0462 138.316C80.4504 135.97 77.2872 128.454 77.2872 128.454C77.2872 128.454 71.7912 134.543 71.3914 136.888C71.2564 137.989 71.5584 139.098 72.2346 139.986C72.9109 140.873 73.9095 141.472 75.0231 141.656C76.1368 141.84 77.2799 141.596 78.2153 140.975C79.1506 140.354 79.8063 139.403 80.0462 138.32V138.316Z"
      fill="#B3157B"
    />
    <path
      d="M105.013 85.6032C105.013 85.6032 86.9525 75.867 81.5839 60.9523C79.3783 54.6806 75.1589 49.2806 69.5594 45.5633C66.8873 43.8183 64.0579 42.3172 61.1067 41.079"
      stroke="#535461"
      stroke-width="2"
      stroke-miterlimit="10"
    />
    <path
      d="M57.6799 31.7007C59.3889 33.3867 61.2297 41.3162 61.2297 41.3162C61.2297 41.3162 53.1635 39.4621 51.4545 37.7718C50.6998 36.9493 50.2964 35.8733 50.3277 34.7669C50.3589 33.6604 50.8226 32.6081 51.6226 31.8279C52.4227 31.0477 53.4978 30.5993 54.6254 30.5756C55.7529 30.552 56.8466 30.9548 57.6799 31.7007Z"
      fill="#B3157B"
    />
    <path
      d="M72.2876 36.0255C72.7885 38.3539 69.946 45.9902 69.946 45.9902C69.946 45.9902 64.2039 40.1304 63.7031 37.7977C63.5544 37.2336 63.5238 36.6457 63.6131 36.0696C63.7024 35.4935 63.9097 34.9412 64.2226 34.4459C64.5355 33.9507 64.9474 33.5228 65.4334 33.1882C65.9194 32.8535 66.4696 32.6191 67.0505 32.4989C67.6315 32.3787 68.2312 32.3754 68.8135 32.4891C69.3958 32.6027 69.9486 32.8311 70.4385 33.1603C70.9284 33.4895 71.3452 33.9127 71.6638 34.4045C71.9824 34.8962 72.1961 35.4462 72.292 36.0212L72.2876 36.0255Z"
      fill="#B3157B"
    />
    <path
      d="M88.2354 52.2337C87.471 54.4888 81.0875 59.676 81.0875 59.676C81.0875 59.676 79.1456 51.7724 79.9101 49.513C80.2777 48.4266 81.0699 47.528 82.1126 47.0149C83.1553 46.5018 84.3629 46.4163 85.4698 46.7771C86.5767 47.1379 87.4923 47.9155 88.015 48.9388C88.5378 49.9621 88.625 51.1473 88.2574 52.2337H88.2354Z"
      fill="#B3157B"
    />
    <path
      d="M97.4965 67.1312C97.1319 69.4812 91.7325 75.6514 91.7325 75.6514C91.7325 75.6514 88.455 68.1833 88.8197 65.8334C88.8804 65.2526 89.0607 64.69 89.3496 64.1797C89.6385 63.6693 90.03 63.2219 90.5004 62.8644C90.9707 62.507 91.5101 62.2471 92.0858 62.1003C92.6616 61.9536 93.2617 61.9231 93.8498 62.0108C94.4379 62.0985 95.0017 62.3025 95.5071 62.6104C96.0125 62.9183 96.4489 63.3237 96.7899 63.8021C97.1309 64.2805 97.3693 64.8218 97.4908 65.3934C97.6123 65.9649 97.6142 66.5546 97.4965 67.1269V67.1312Z"
      fill="#B3157B"
    />
    <path
      d="M63.7383 52.6951C66.1634 52.6693 73.14 48.2798 73.14 48.2798C73.14 48.2798 66.0623 44.0542 63.6372 44.08C62.472 44.0932 61.3599 44.5601 60.5455 45.378C59.731 46.196 59.281 47.2979 59.2944 48.4415C59.3078 49.5851 59.7835 50.6766 60.6169 51.4759C61.4503 52.2752 62.5731 52.7169 63.7383 52.7038V52.6951Z"
      fill="#B3157B"
    />
    <path
      d="M74.7919 70.0029C77.094 69.2656 82.4143 63.0307 82.4143 63.0307C82.4143 63.0307 74.3701 61.0774 72.068 61.8147C71.4999 61.9738 70.9703 62.2438 70.511 62.6084C70.0516 62.973 69.6719 63.4248 69.3946 63.9367C69.1172 64.4487 68.9479 65.0103 68.8968 65.5879C68.8457 66.1656 68.9138 66.7474 69.0971 67.2986C69.2803 67.8498 69.575 68.3591 69.9634 68.796C70.3519 69.2329 70.8261 69.5884 71.3577 69.8412C71.8894 70.0941 72.4675 70.2391 73.0576 70.2676C73.6476 70.2962 74.2375 70.2076 74.7919 70.0072V70.0029Z"
      fill="#B3157B"
    />
    <path
      d="M87.8839 85.379C90.2827 85.034 96.6003 79.7736 96.6003 79.7736C96.6003 79.7736 89.0086 76.5138 86.6143 76.8588C86.0246 76.9184 85.4533 77.0946 84.9348 77.3766C84.4163 77.6587 83.9613 78.0409 83.5973 78.5001C83.2333 78.9593 82.9677 79.486 82.8165 80.0486C82.6654 80.6112 82.6319 81.198 82.7179 81.7737C82.8039 82.3493 83.0078 82.902 83.3172 83.3983C83.6266 83.8946 84.0351 84.3243 84.5182 84.6615C85.0012 84.9988 85.5489 85.2366 86.1281 85.3606C86.7072 85.4846 87.306 85.4924 87.8883 85.3833L87.8839 85.379Z"
      fill="#B3157B"
    />
    <path
      d="M229.305 321.841C317.139 321.841 388.343 251.958 388.343 165.752C388.343 79.5463 317.139 9.66287 229.305 9.66287C141.471 9.66287 70.2667 79.5463 70.2667 165.752C70.2667 251.958 141.471 321.841 229.305 321.841Z"
      fill="url(#paint0_linear)"
    />
    <path
      d="M229.305 319.254C315.683 319.254 385.707 250.529 385.707 165.752C385.707 80.9751 315.683 12.25 229.305 12.25C142.926 12.25 72.9027 80.9751 72.9027 165.752C72.9027 250.529 142.926 319.254 229.305 319.254Z"
      fill="#B3157B"
    />
    <path
      d="M229.305 287.777C297.971 287.777 353.636 233.145 353.636 165.752C353.636 98.3591 297.971 43.7265 229.305 43.7265C160.639 43.7265 104.974 98.3591 104.974 165.752C104.974 233.145 160.639 287.777 229.305 287.777Z"
      fill="#DDE1EC"
    />
    <path
      opacity="0.3"
      d="M232.82 65.2857H225.79V173.082H232.82V65.2857Z"
      fill="#535461"
    />
    <g opacity="0.1">
      <path
        opacity="0.1"
        d="M336.062 163.165H236.773V171.789H336.062V163.165Z"
        fill="black"
      />
      <path
        opacity="0.1"
        d="M166.674 130.901L162.598 138.541L225.072 170.65L229.148 163.01L166.674 130.901Z"
        fill="black"
      />
      <path
        opacity="0.1"
        d="M229.305 180.412C236.584 180.412 242.485 174.621 242.485 167.477C242.485 160.333 236.584 154.541 229.305 154.541C222.026 154.541 216.125 160.333 216.125 167.477C216.125 174.621 222.026 180.412 229.305 180.412Z"
        fill="black"
      />
    </g>
    <path d="M336.062 161.44H236.773V170.064H336.062V161.44Z" fill="#535461" />
    <path
      d="M229.177 161.295L166.703 129.186L162.627 136.826L225.101 168.935L229.177 161.295Z"
      fill="#535461"
    />
    <path
      d="M229.305 178.687C236.584 178.687 242.485 172.896 242.485 165.752C242.485 158.608 236.584 152.816 229.305 152.816C222.026 152.816 216.125 158.608 216.125 165.752C216.125 172.896 222.026 178.687 229.305 178.687Z"
      fill="#535461"
    />
    <g opacity="0.1">
      <path
        opacity="0.1"
        d="M114.63 180.412C114.63 113.018 170.294 58.3868 238.961 58.3868C258.235 58.3701 277.247 62.758 294.493 71.203C311.739 79.6481 326.744 91.9183 338.321 107.042C317.162 69.3044 276.305 43.7265 229.296 43.7265C160.628 43.7265 104.965 98.3577 104.965 165.752C104.925 192.227 113.698 217.991 129.95 239.122C119.871 221.137 114.601 200.938 114.63 180.412Z"
        fill="black"
      />
    </g>
    <path
      d="M344.181 75.9878C342.705 74.595 330.281 83.7491 330.281 83.7491C330.281 83.7491 325.857 84.5425 326.911 87.522C327.966 90.5015 322.276 107.188 322.276 107.188L319.961 104.01C320.185 100.281 319.139 97.6376 318.12 95.9905C318.037 95.8568 317.953 95.7274 317.87 95.6067L318.274 95.4687C318.12 93.4335 314.803 90.3333 313.041 88.8155C313.041 88.5956 313.041 88.3843 313.041 88.1601C313.151 85.7282 314.144 83.1627 313.041 80.9593C311.794 78.4455 308.143 77.1822 307.835 74.4226C307.651 72.7754 308.784 71.2878 309.285 69.7011C310.48 65.9067 307.998 62.0346 305.626 58.7662C304.822 57.5408 303.844 56.4344 302.722 55.4806C301.652 54.7133 300.478 54.0979 299.233 53.6524C295.758 52.2726 292.204 51.5784 288.619 50.6341C285.179 49.7372 282.007 49.3103 278.514 50.4357C277.686 50.6551 276.929 51.0814 276.318 51.6732C275.487 52.5873 275.378 53.8895 274.833 54.9804C273.954 56.7354 272.061 57.7831 270.387 58.9085C268.713 60.0339 267.035 61.5776 267.026 63.5179C267.026 66.2732 270.233 68.0065 271.305 70.5721C272.307 72.9608 271.305 75.6213 270.747 78.1394C270.514 78.9532 270.491 79.8113 270.681 80.6359C270.902 81.2505 271.236 81.8204 271.665 82.3176C272.329 83.1799 273.04 83.9819 273.748 84.8012L273.423 84.9262C267.527 84.3312 263.735 91.6786 263.735 91.6786C264.008 91.7347 264.267 91.7993 264.522 91.8726L264.271 92.1917C262.49 94.4625 261.034 96.9622 259.944 99.621L255.111 105.977C255.111 105.977 254.057 90.0832 256.587 86.5087C259.118 82.9342 254.272 80.7481 254.272 80.7481C254.272 80.7481 243.728 69.2268 242.265 70.2185C240.802 71.2102 245.846 83.7275 250.27 85.7153C250.27 85.7153 250.709 89.6865 249.83 92.2693C249.299 93.9035 246.461 111.142 246.461 111.142C246.461 111.142 243.935 125.643 255.52 118.472C263.045 113.824 267.909 105.821 270.387 100.794C270.56 100.44 270.722 100.103 270.874 99.7806C270.989 100.314 271.067 100.854 271.107 101.398L271.547 118.011C271.658 122.12 270.744 126.194 268.884 129.877L263.722 140.152L264.298 140.325L263.951 140.816C260.55 145.728 254.768 156.77 266.67 162.397L282.486 164.385L281.642 168.356C281.642 168.356 275.114 180.473 273.216 188.816C272.037 193.925 270.196 198.865 267.738 203.515L268.225 203.769C268.124 203.882 268.019 203.998 267.918 204.119C266.959 205.177 266.325 206.481 266.09 207.879L263.946 210.862C263.946 210.862 263.103 223.177 264.79 226.161C265.712 227.791 268.774 228.826 271.38 229.429C275.246 230.331 278.365 226.411 276.313 223.181L276.287 223.138H276.247C275.808 221.133 274.464 214.911 274.903 212.548C275.026 211.876 275.14 211.207 275.197 210.526C275.303 209.631 275.58 208.763 276.015 207.969C276.085 207.836 276.16 207.706 276.234 207.577L276.463 207.672C277.17 207.969 277.869 208.25 278.532 208.495C277.504 209.414 276.775 211.315 277.653 215.226C277.653 215.226 277.737 225.01 278.497 226.549C279.257 228.088 287.762 230.124 289.238 228.537C290.715 226.95 288.29 221.483 288.29 221.483L288.215 221.534C287.727 218.365 287.125 212.691 288.606 210.457C289.203 209.556 289.783 208.625 290.302 207.754L290.622 207.215C293.373 208.56 296.281 209.573 297.871 208.87C297.871 208.87 304.822 192.977 304.4 190.993C303.978 189.01 315.141 166.558 315.141 166.558C315.141 166.558 324.618 156.21 313.037 149.078C309.36 146.806 306.68 145.279 304.734 144.249L303.104 135.884C302.266 131.498 302.416 126.986 303.543 122.664L305.3 116.084L305.445 115.523C305.445 115.523 309.869 106.585 309.659 102.411C309.642 102.087 309.679 101.762 309.768 101.449C309.817 101.648 309.869 101.855 309.927 102.07C311.089 106.408 312.62 110.643 314.504 114.73C317.865 122.172 322.852 121.581 325.584 120.525C326.169 120.303 326.689 119.941 327.096 119.473C327.503 119.005 327.785 118.445 327.917 117.843C328.901 113.212 331.603 100.238 331.775 96.6545C331.928 93.8526 332.28 91.0647 332.829 88.311C339.762 84.3312 345.657 77.3805 344.181 75.9878Z"
      fill="url(#paint1_linear)"
    />
    <path
      d="M292.608 203.282C292.608 203.282 291.681 205.106 290.411 207.297C289.915 208.159 289.361 209.086 288.795 209.979C286.787 213.131 288.795 223.173 288.795 223.173L284.401 223.764L280.008 221.608L279.204 214.321V208.991L284.212 203.494L286.409 201.113L292.608 203.282Z"
      fill="#F8BDC5"
    />
    <g opacity="0.1">
      <path
        opacity="0.1"
        d="M292.608 203.282C292.608 203.282 291.681 205.106 290.411 207.297C288.472 206.279 286.597 205.147 284.797 203.907L284.41 203.64L284.204 203.494L286.4 201.113L292.608 203.282Z"
        fill="black"
      />
    </g>
    <path
      d="M314.087 166.45C314.087 166.45 303.451 188.704 303.855 190.674C304.259 192.645 297.634 208.4 297.634 208.4C296.123 209.099 293.346 208.094 290.728 206.762C288.753 205.729 286.846 204.577 285.016 203.312L284.63 203.045L284.397 202.881L301.856 155.416L286.409 144.296L285.267 143.473L278.361 138.471L299.449 142.214C299.449 142.214 300.182 142.123 304.062 144.253C305.924 145.275 308.512 146.806 312.088 149.108C323.111 156.21 314.087 166.45 314.087 166.45Z"
      fill="#5E52AD"
    />
    <g opacity="0.03">
      <path
        opacity="0.03"
        d="M314.087 166.45C314.087 166.45 303.451 188.704 303.855 190.674C304.259 192.645 297.634 208.4 297.634 208.4C296.123 209.099 293.346 208.094 290.728 206.762C288.753 205.729 286.846 204.577 285.016 203.312L284.63 203.045L284.397 202.881L301.856 155.416L286.409 144.296L285.267 143.473L278.361 138.471L299.449 142.214C299.449 142.214 300.182 142.123 304.062 144.253C305.924 145.275 308.512 146.806 312.088 149.108C323.111 156.21 314.087 166.45 314.087 166.45Z"
        fill="black"
      />
    </g>
    <path
      d="M281.774 207.219C281.774 207.219 276.555 206.43 278.365 214.704C278.365 214.704 278.444 224.406 279.169 225.915C279.894 227.424 288 229.46 289.401 227.886C290.802 226.312 288.496 220.896 288.496 220.896C288.496 220.896 282.578 225.13 280.97 220.599C279.362 216.067 281.774 207.219 281.774 207.219Z"
      fill="#5D3E53"
    />
    <path
      d="M278.158 205.645C277.589 206.177 277.126 206.809 276.792 207.508C276.378 208.299 276.114 209.159 276.015 210.043C275.962 210.716 275.852 211.384 275.738 212.048C275.237 214.855 277.157 223.173 277.157 223.173L269.53 224.354L266.723 221.401L266.121 214.903C266.87 212.675 267.276 210.349 267.325 208.004C267.325 206.309 268.203 204.796 269.082 203.692C269.678 202.955 270.36 202.291 271.116 201.713C271.116 201.713 279.766 204.265 278.158 205.645Z"
      fill="#F8BDC5"
    />
    <g opacity="0.1">
      <path
        opacity="0.1"
        d="M278.159 205.645C277.589 206.177 277.126 206.809 276.792 207.508C273.669 206.124 270.387 204.377 269.192 203.731L269.099 203.683C269.695 202.947 270.378 202.282 271.134 201.704C271.134 201.704 279.766 204.265 278.159 205.645Z"
        fill="black"
      />
    </g>
    <path
      d="M302.845 160.543C302.845 160.543 297.832 169.801 294.616 177.48C292.507 182.525 288.149 194.538 285.39 202.187L284.986 203.317C283.773 206.702 282.965 208.991 282.965 208.991C282.43 208.995 281.898 208.918 281.388 208.763C280.913 208.638 280.382 208.469 279.815 208.263L279.178 208.025C278.545 207.784 277.86 207.504 277.205 207.21C274.016 205.813 270.615 203.994 269.381 203.33L268.915 203.075C271.27 198.445 273.027 193.545 274.147 188.488C275.953 180.218 282.174 168.223 282.174 168.223L282.978 164.282L267.926 162.311C256.587 156.749 262.097 145.784 265.334 140.916C265.887 140.071 266.483 139.255 267.123 138.471L279.165 141.058C279.165 141.058 281.062 141.653 285.28 143.486L287.218 144.348C289.581 145.413 292.49 146.784 296.004 148.543C307.857 154.425 302.845 160.543 302.845 160.543Z"
      fill="#5E52AD"
    />
    <path
      d="M277.082 222.582C277.512 223.292 277.717 224.111 277.673 224.936C277.629 225.76 277.338 226.554 276.835 227.216C276.332 227.878 275.641 228.379 274.848 228.657C274.056 228.934 273.197 228.975 272.381 228.774C269.917 228.175 266.995 227.148 266.116 225.531C264.513 222.578 265.312 210.367 265.312 210.367L267.421 207.314C267.421 207.314 266.319 220.806 268.928 221.974C271.538 223.143 277.056 222.522 277.056 222.522L277.082 222.582Z"
      fill="#5D3E53"
    />
    <path
      d="M279.217 51.311C278.416 51.5299 277.688 51.954 277.108 52.5399C276.318 53.4454 276.23 54.739 275.694 55.8212C274.859 57.546 273.058 58.6024 271.459 59.7019C269.86 60.8014 268.265 62.3494 268.256 64.2725C268.256 67.0062 271.331 68.7223 272.333 71.262C273.286 73.6335 272.333 76.268 271.801 78.7646C271.58 79.5729 271.559 80.4216 271.74 81.2396C271.949 81.8464 272.268 82.4115 272.68 82.9083C274.617 85.4954 277.025 87.7893 278.321 90.7343C279.305 92.9721 279.578 95.4428 279.837 97.8704C280.21 101.363 280.584 104.92 279.907 108.37C279.841 108.576 279.841 108.797 279.907 109.004C280.022 109.201 280.204 109.354 280.421 109.435C281.699 110.044 283.09 110.394 284.51 110.463C285.93 110.531 287.349 110.318 288.682 109.834C290.015 109.351 291.235 108.608 292.269 107.65C293.302 106.692 294.127 105.539 294.695 104.261C295.574 102.307 295.912 99.9487 297.652 98.681C297.855 98.5162 298.099 98.4075 298.359 98.3663C298.769 98.3774 299.167 98.5079 299.501 98.7414C301.759 99.9401 304.496 99.9746 307.014 99.483C308.534 99.1855 310.089 98.6552 311.095 97.491C313.077 95.1798 311.974 91.726 312.106 88.712C312.211 86.3017 313.156 83.7577 312.106 81.5759C310.919 79.0837 307.436 77.8332 307.146 75.1081C306.97 73.4783 308.051 71.9993 308.529 70.4298C309.667 66.6655 307.304 62.828 305.046 59.5898C304.286 58.3818 303.356 57.2858 302.282 56.3343C301.269 55.5774 300.151 54.9674 298.961 54.5234C295.653 53.1565 292.279 52.4666 288.856 51.5352C285.579 50.6168 282.561 50.1899 279.217 51.311Z"
      fill="#85555C"
    />
    <path
      d="M296.022 107.563H284.379V89.0484C284.725 87.2701 284.928 85.468 284.986 83.6585C284.986 83.0506 284.986 82.4297 284.986 81.8044C284.876 79.5968 284.41 77.3934 283.189 76.0481C279.977 72.5038 293.623 73.0945 293.623 73.0945C294.042 74.722 294.585 76.3162 295.249 77.8634C296.237 80.2776 297.552 82.5502 299.159 84.6201C300.572 86.4619 302.383 87.9741 304.461 89.0484C312.475 92.9894 296.022 107.563 296.022 107.563Z"
      fill="#F8BDC5"
    />
    <g opacity="0.1">
      <path
        opacity="0.1"
        d="M295.235 77.8634C294.053 79.3761 292.472 80.5428 290.663 81.2375C288.855 81.9321 286.887 82.1281 284.973 81.8044C284.863 79.5968 284.397 77.3934 283.176 76.0481C279.964 72.5038 293.61 73.0945 293.61 73.0945C294.029 74.722 294.572 76.3162 295.235 77.8634Z"
        fill="black"
      />
    </g>
    <path
      d="M286.787 81.3733C292.661 81.3733 297.423 76.6996 297.423 70.9343C297.423 65.169 292.661 60.4953 286.787 60.4953C280.913 60.4953 276.151 65.169 276.151 70.9343C276.151 76.6996 280.913 81.3733 286.787 81.3733Z"
      fill="#F8BDC5"
    />
    <path
      d="M330.935 88.8544C330.413 91.586 330.079 94.3489 329.934 97.1245C329.771 100.673 327.197 113.54 326.257 118.132C326.138 118.721 325.873 119.272 325.485 119.736C325.097 120.2 324.599 120.563 324.034 120.792C321.424 121.84 316.679 122.426 313.49 115.049C311.691 110.989 310.232 106.793 309.127 102.501C308.736 101.059 308.442 99.5925 308.248 98.1119L315.278 94.3692C315.939 94.9768 316.5 95.6824 316.938 96.4605C317.909 98.0947 318.907 100.716 318.696 104.412L320.892 107.564C320.892 107.564 326.309 91.0189 325.286 88.0653C324.262 85.1117 328.497 84.3226 328.497 84.3226C328.497 84.3226 340.337 75.2677 341.743 76.6432C343.149 78.0187 337.556 84.9133 330.935 88.8544Z"
      fill="#F8BDC5"
    />
    <path
      d="M273.343 96.7321C272.795 98.2727 272.164 99.7839 271.454 101.26C269.091 106.248 264.46 114.195 257.29 118.792C246.254 125.88 248.662 111.504 248.662 111.504C248.662 111.504 251.364 94.4123 251.873 92.7954C252.677 90.2341 252.273 86.2974 252.273 86.2974C248.06 84.3269 243.245 71.9217 244.646 70.9343C246.048 69.9469 256.069 81.3733 256.069 81.3733C256.069 81.3733 260.686 83.5292 258.266 87.0865C255.845 90.6438 256.86 106.386 256.86 106.386L261.503 100.095C262.536 97.4703 263.924 94.9933 265.629 92.7307C266.507 91.5536 267.123 90.8421 267.123 90.8421L273.343 96.7321Z"
      fill="#F8BDC5"
    />
    <g opacity="0.1">
      <path
        opacity="0.1"
        d="M316.943 96.4604C315.467 96.9951 309.751 99.2588 309.118 102.497C308.727 101.054 308.434 99.5881 308.24 98.1076L315.269 94.3649C315.936 94.9727 316.5 95.6799 316.943 96.4604Z"
        fill="black"
      />
    </g>
    <g opacity="0.1">
      <path
        opacity="0.1"
        d="M273.343 96.7321C272.795 98.2727 272.164 99.7839 271.454 101.26C271.182 99.3105 270.062 94.326 265.629 92.7177C266.507 91.5406 267.122 90.8291 267.122 90.8291L273.343 96.7321Z"
        fill="black"
      />
    </g>
    <g opacity="0.1">
      <path
        opacity="0.1"
        d="M296.022 107.563H284.379V89.0484C284.725 87.2702 284.928 85.468 284.986 83.6586C287.38 85.9266 286.787 89.4408 286.787 89.4408L293.008 103.239L296.022 91.0405L295.02 89.4666L299.15 84.646C300.563 86.4878 302.374 88 304.453 89.0743C312.475 92.9894 296.022 107.563 296.022 107.563Z"
        fill="black"
      />
    </g>
    <g opacity="0.1">
      <path
        opacity="0.1"
        d="M304.246 145.37C304.246 145.37 295.126 144.658 287.213 144.322L286.418 144.288C285.293 144.244 284.221 144.21 283.171 144.184C275.492 144.003 266.806 141.368 265.33 140.907C265.884 140.065 266.482 139.252 267.123 138.471L279.165 141.058C279.165 141.058 281.062 141.653 285.28 143.486L278.361 138.471L299.449 142.214C299.449 142.214 300.182 142.123 304.061 144.253L304.246 145.37Z"
        fill="black"
      />
    </g>
    <path
      d="M296.022 91.808L295.02 90.2341L299.475 85.0039C299.475 85.0039 308.661 89.4235 311.069 88.4533C311.069 88.4533 316.89 93.1964 317.088 95.9387C317.088 95.9387 308.661 98.694 308.859 102.838C309.057 106.981 304.861 115.834 304.861 115.834L303.104 122.914C302.022 127.204 301.873 131.67 302.664 136.022L304.268 144.788C304.268 144.788 291.624 143.805 283.18 143.606C274.736 143.408 265.119 140.26 265.119 140.26L270.044 130.089C271.82 126.418 272.69 122.388 272.583 118.326L272.144 101.859C272.144 101.859 271.744 93.5888 265.115 92.209C265.115 92.209 268.726 84.9219 274.341 85.5127C274.341 85.5127 282.521 82.1623 284.951 84.4261C287.38 86.6898 286.783 90.2385 286.783 90.2385L293.004 104.036L296.022 91.808Z"
      fill="#ED677B"
    />
    <g opacity="0.1">
      <path
        opacity="0.1"
        d="M279.112 68.7826C280.724 68.7826 281.989 67.1053 283.602 67.1916C284.437 67.2347 285.153 67.7564 285.842 68.2264C288.449 69.9978 291.349 71.3109 294.414 72.1071C295.604 72.4175 296.865 72.6504 298.06 72.3658C299.255 72.0812 300.376 71.1585 300.512 69.9555C300.545 69.4253 300.474 68.8937 300.301 68.3903C298.948 63.7647 295.887 59.7999 291.716 57.27C290.047 56.2653 288.008 55.4978 286.159 56.1274C284.489 56.6922 283.413 58.2272 282.205 59.4906C281.294 60.4366 280.26 61.2601 279.129 61.9397C278.251 62.4615 276.933 62.8021 276.428 63.7593C275.474 65.5444 276.972 68.7654 279.112 68.7826Z"
        fill="black"
      />
    </g>
    <path
      d="M279.112 68.3903C280.724 68.3903 281.989 66.713 283.602 66.7992C284.437 66.8423 285.153 67.3641 285.842 67.8341C288.449 69.6054 291.349 70.9185 294.414 71.7147C295.604 72.0252 296.865 72.258 298.06 71.9735C299.255 71.6889 300.376 70.7661 300.512 69.5631C300.545 69.0329 300.474 68.5014 300.301 67.9979C298.948 63.3723 295.887 59.4076 291.716 56.8777C290.047 55.873 288.008 55.1055 286.159 55.735C284.489 56.2999 283.413 57.8349 282.205 59.0983C281.294 60.0442 280.26 60.8678 279.129 61.5474C278.251 62.0691 276.933 62.4098 276.428 63.367C275.474 65.1694 276.972 68.3687 279.112 68.3903Z"
      fill="#85555C"
    />
    <path
      opacity="0.05"
      d="M274.248 113.372C274.248 113.372 284.081 116.916 290.504 114.161L293.715 114.359C293.715 114.359 299.053 118.033 304.699 116.39"
      fill="black"
    />
    <path
      opacity="0.05"
      d="M320.804 107.464C320.804 107.464 319.201 111.207 320.001 112.388L320.804 107.464Z"
      fill="black"
    />
    <path
      opacity="0.05"
      d="M256.789 106.283C256.789 106.283 257.593 110.026 256.789 111.207V106.283Z"
      fill="black"
    />
    <path
      d="M423.217 191.567C423.217 191.567 404.835 209.608 415.212 236.376C425.589 263.144 397.428 307.659 397.428 307.659C397.428 307.659 397.731 307.616 398.307 307.521C436.059 300.98 454.814 258.608 433.823 227.127C425.998 215.42 419.593 201.691 423.217 191.567Z"
      fill="#B3157B"
    />
    <path
      opacity="0.1"
      d="M423.217 191.869C423.217 191.869 404.835 209.91 415.212 236.678C425.589 263.446 397.428 307.957 397.428 307.957C397.428 307.957 397.731 307.914 398.307 307.819C436.059 301.278 454.814 258.905 433.823 227.424C425.998 215.722 419.593 201.993 423.217 191.869Z"
      fill="black"
    />
    <path
      d="M423.217 191.567C423.217 191.567 412.84 213.678 423.217 231.719C433.594 249.76 424.974 300.385 397.424 307.659"
      stroke="#535461"
      stroke-miterlimit="10"
    />
    <path
      d="M455.956 264.532C455.956 264.532 434.982 261.255 433.071 279.701C431.16 298.147 392.727 300.704 392.727 300.704L393.448 301.174C425.168 321.612 455.495 314.192 450.921 287.053C449.234 276.968 449.375 266.835 455.956 264.532Z"
      fill="#B3157B"
    />
    <path
      d="M455.956 264.532C455.956 264.532 439.674 268.038 441.019 282.569C442.363 297.099 416.856 314.515 392.745 300.708"
      stroke="#535461"
      stroke-miterlimit="10"
    />
    <path
      d="M437.504 301.377C437.504 301.377 420.985 298.134 416.579 293.81C412.172 289.485 392.35 281.922 390.149 287.342C387.948 292.762 360.415 311.122 379.135 314.364C397.854 317.607 423.186 318.676 428.691 316.52C434.196 314.364 437.504 301.377 437.504 301.377Z"
      fill="#A8A8A8"
    />
    <path
      opacity="0.2"
      d="M379.135 312.342C397.859 315.585 423.186 316.654 428.691 314.498C432.887 312.851 435.8 304.943 436.951 301.26L437.5 301.373C437.5 301.373 434.196 314.343 428.691 316.503C423.186 318.663 397.854 317.585 379.135 314.347C373.731 313.411 372.184 311.212 372.769 308.431C373.226 310.246 375.11 311.643 379.135 312.342Z"
      fill="black"
    />
  </g>
  <defs>
    <linearGradient
      id="paint0_linear"
      x1="229.305"
      y1="321.841"
      x2="229.305"
      y2="9.66287"
      gradientUnits="userSpaceOnUse"
    >
      <stop stop-color="#808080" stop-opacity="0.25" />
      <stop offset="0.54" stop-color="#808080" stop-opacity="0.12" />
      <stop offset="1" stop-color="#808080" stop-opacity="0.1" />
    </linearGradient>
    <linearGradient
      id="paint1_linear"
      x1="76884.2"
      y1="107262"
      x2="76884.2"
      y2="32281"
      gradientUnits="userSpaceOnUse"
    >
      <stop stop-color="#808080" stop-opacity="0.25" />
      <stop offset="0.54" stop-color="#808080" stop-opacity="0.12" />
      <stop offset="1" stop-color="#808080" stop-opacity="0.1" />
    </linearGradient>
    <clipPath id="clip0">
      <rect width="456" height="333" fill="white" />
    </clipPath>
  </defs>
</svg>
