<svg
  width="457"
  height="343"
  viewBox="0 0 457 343"
  fill="none"
  xmlns="http://www.w3.org/2000/svg"
>
  <g clip-path="url(#clip0)">
    <path
      opacity="0.1"
      d="M2.80118 156.962L54.2838 278.896L71.899 320.611C77.6201 334.154 91.1425 342.992 106.155 342.992H350.85C365.862 342.992 379.376 334.154 385.105 320.611L387.562 314.791L454.203 156.962C461.291 140.17 454.516 120.864 438.355 111.819L422.19 102.782L412.942 97.6108L366.579 71.6851L353.076 64.1329L335.667 54.3986L315.829 43.3056L301.669 35.3924L267.199 16.1104L259.291 11.6975L247.254 4.96462L246.918 4.7821C241.262 1.63903 234.929 -0.00732422 228.494 -0.00732422C222.059 -0.00732422 215.726 1.63903 210.071 4.7821L148.865 39.0184L129.222 50.006L109.063 61.2775L95.0808 69.0933L62.7229 87.1788L36.8113 101.671L18.6652 111.811C2.48822 120.851 -4.28687 140.17 2.80118 156.962Z"
      fill="#B3157B"
    />
    <path
      opacity="0.1"
      d="M329.97 55.7492C331.455 55.3841 333.436 54.938 335.667 54.4026L315.829 43.3096C304.811 46.1812 294.212 48.2903 287.901 47.905C287.901 47.905 286.007 51.4418 291.363 51.4418C296.72 51.4418 291.526 56.3657 294.834 56.6739C298.143 56.9822 300.821 58.9777 303.499 56.6739C306.178 54.3702 307.909 53.1371 311.217 53.5955C314.526 54.0538 319.098 56.5158 320.675 53.5955C322.251 50.6752 321.146 57.8988 329.97 55.7492Z"
      fill="#B3157B"
    />
    <path
      opacity="0.1"
      d="M169.547 41.8372C164.642 42.1333 157.13 40.9246 148.849 38.998L129.206 49.9856C136.159 50.8414 135.311 44.794 136.773 47.5074C138.358 50.4277 142.922 47.9658 146.23 47.5074C149.539 47.0491 151.27 48.274 153.949 50.5859C156.627 52.8978 159.305 50.8901 162.613 50.5859C165.922 50.2817 160.728 45.3537 166.084 45.3537C171.441 45.3537 169.547 41.8372 169.547 41.8372Z"
      fill="#B3157B"
    />
    <path
      opacity="0.1"
      d="M31.5297 149.405C26.173 149.405 28.0629 145.864 28.0629 145.864C42.6828 146.761 80.3974 134.228 92.854 129.92L94.1892 93.1369C87.4181 97.712 77.2119 99.6264 72.3545 100.843C63.531 102.993 64.6324 95.7652 63.0595 98.6895C61.4866 101.614 56.9145 99.1478 53.6022 98.6895C50.2899 98.2312 48.5625 99.4561 45.8841 101.764C43.2058 104.072 40.5275 102.068 37.2192 101.764C37.073 101.754 36.9282 101.728 36.7873 101.687L62.699 87.1949C75.5756 83.65 88.3056 79.3913 94.7637 77.1564L95.0569 69.1094L109.039 61.2936L108.726 78.4097C123.853 83.5243 156.238 93.8224 169.543 93.0112C169.543 93.0112 171.437 96.548 166.08 96.548C160.724 96.548 165.918 101.472 162.609 101.78C159.301 102.088 156.623 104.088 153.944 101.78C151.266 99.4723 149.535 98.2434 146.226 98.7057C142.918 99.1681 138.346 101.626 136.769 98.7057C135.192 95.7854 136.298 103.009 127.474 100.859C123.243 99.8252 114.966 98.2271 108.421 94.812L107.775 130.225C120.969 134.767 157.435 146.769 171.766 145.893C171.766 145.893 173.656 149.434 168.299 149.434C162.942 149.434 168.14 154.358 164.832 154.662C161.524 154.966 158.846 156.97 156.167 154.662C153.489 152.354 151.753 151.125 148.445 151.587C145.137 152.05 140.569 154.508 138.992 151.587C137.415 148.667 138.52 155.891 129.693 153.741C124.744 152.524 114.241 150.549 107.506 145.791L106.812 183.512C120.921 188.33 155.656 199.606 169.563 198.758C169.563 198.758 171.457 202.295 166.1 202.295C160.743 202.295 165.902 207.194 162.613 207.519C159.325 207.843 156.627 209.823 153.948 207.519C151.27 205.215 149.539 203.978 146.23 204.44C142.922 204.903 138.35 207.361 136.773 204.44C135.196 201.52 136.302 208.744 127.478 206.594C122.823 205.458 113.254 203.633 106.503 199.456L104.97 282.692C120.909 288.009 136.242 295.533 152.91 297.833C180.748 301.674 209.171 290.532 236.886 290.816L239.073 230.589C232.733 233.619 225.142 235.095 221.156 236.069C212.329 238.218 213.43 230.995 211.857 233.915C210.285 236.835 205.712 234.373 202.404 233.915C199.096 233.457 197.36 234.682 194.682 236.994C192.004 239.305 189.325 237.298 186.017 236.994C182.709 236.689 187.903 231.761 182.546 231.761C177.19 231.761 179.084 228.225 179.084 228.225C192.325 229.036 224.465 218.843 239.703 213.708L241.097 175.282C234.326 180.011 223.882 181.983 218.949 183.187C210.126 185.337 211.227 178.113 209.655 181.034C208.082 183.954 203.505 181.492 200.197 181.034C196.889 180.575 195.158 181.8 192.479 184.112C189.801 186.424 187.123 184.412 183.81 184.112C180.498 183.812 185.7 178.88 180.343 178.88C174.987 178.88 176.881 175.343 176.881 175.343C191.508 176.235 229.211 163.702 241.668 159.395L243.007 122.612C236.232 127.187 226.026 129.101 221.172 130.318C212.345 132.468 213.446 125.24 211.873 128.164C210.3 131.088 205.728 128.622 202.42 128.164C199.112 127.706 197.376 128.931 194.698 131.239C192.02 133.546 189.341 131.543 186.033 131.239C182.725 130.934 187.919 126.01 182.562 126.01C177.206 126.01 179.099 122.474 179.099 122.474C193.596 123.35 230.812 111.02 243.558 106.607L244.889 70.0099C238.288 75.6395 226.485 77.846 221.148 79.1479C212.321 81.2976 213.422 74.0739 211.85 76.9942C210.277 79.9145 205.704 77.4525 202.396 76.9942C199.088 76.5359 197.352 77.7608 194.674 80.0727C191.996 82.3846 189.317 80.3769 186.009 80.0727C182.701 79.7685 187.895 74.8405 182.538 74.8405C177.182 74.8405 179.076 71.3037 179.076 71.3037C194.389 72.2406 234.984 58.4626 245.44 54.8081L246.272 31.7906C239.833 35.0029 231.913 36.5361 227.809 37.5379C218.985 39.6875 220.087 32.4598 218.514 35.3842C216.941 38.3085 212.365 35.8425 209.056 35.3842C205.748 34.9258 204.017 36.1507 201.338 38.4586C198.66 40.7664 195.982 38.7628 192.673 38.4586C189.365 38.1544 194.559 33.2264 189.203 33.2264C183.846 33.2264 185.74 29.6896 185.74 29.6896C199.143 30.5008 231.901 20.0648 246.886 14.9908L247.25 4.96045L259.291 11.6974L259.259 13.4171C261.185 14.0863 263.907 15.0395 267.183 16.1103L301.653 35.3923C298.345 35.8547 293.788 38.3045 292.215 35.3923C290.642 32.4801 291.744 39.6957 282.916 37.546C277.528 36.2278 265.535 33.9889 258.974 28.2173L258.443 57.0146C273.95 62.2427 305.306 72.1311 318.345 71.3199C318.345 71.3199 320.235 74.8567 314.878 74.8567C309.521 74.8567 314.72 79.7807 311.411 80.0889C308.103 80.3972 305.421 82.3927 302.742 80.0889C300.064 77.7851 298.333 76.5521 295.024 77.0104C291.716 77.4688 287.144 79.9307 285.567 77.0104C283.99 74.0901 285.096 81.3138 276.272 79.1641C272.243 78.1826 264.533 76.6819 258.154 73.5913L257.524 107.876C272.651 112.991 305.036 123.289 318.345 122.478C318.345 122.478 320.235 126.014 314.878 126.014C309.521 126.014 314.72 130.938 311.411 131.243C308.103 131.547 305.421 133.55 302.742 131.243C300.064 128.935 298.333 127.706 295.024 128.168C291.716 128.631 287.144 131.088 285.567 128.168C283.99 125.248 285.096 132.472 276.272 130.322C272.045 129.292 263.764 127.69 257.223 124.274L256.573 159.687C269.77 164.201 306.237 176.215 320.564 175.343C320.564 175.343 322.457 178.88 317.101 178.88C311.744 178.88 316.938 183.804 313.63 184.112C310.322 184.42 307.643 186.416 304.965 184.112C302.287 181.808 300.555 180.575 297.247 181.034C293.939 181.492 289.367 183.954 287.79 181.034C286.213 178.113 287.318 185.337 278.491 183.187C273.546 181.97 263.039 179.995 256.284 175.238L255.59 212.978C269.707 217.801 304.434 229.072 318.345 228.225C318.345 228.225 320.235 231.761 314.878 231.761C309.521 231.761 314.72 236.685 311.411 236.994C308.103 237.302 305.421 239.297 302.742 236.994C300.064 234.69 298.333 233.457 295.024 233.915C291.716 234.373 287.144 236.835 285.567 233.915C283.99 230.995 285.096 238.218 276.272 236.069C271.617 234.933 262.048 233.108 255.297 228.93L254.109 292.726L254.612 292.84C265.844 295.464 276.244 300.887 287.536 303.138C305.96 306.825 325.722 302.01 344.47 301.248L347.89 207.194C341.55 210.224 333.959 211.701 329.969 212.674C321.146 214.824 322.247 207.6 320.675 210.52C319.102 213.441 314.529 210.979 311.217 210.52C307.905 210.062 306.177 211.287 303.499 213.599C300.821 215.911 298.143 213.903 294.834 213.599C291.526 213.295 296.72 208.367 291.363 208.367C286.007 208.367 287.901 204.83 287.901 204.83C301.142 205.641 333.282 195.448 348.5 190.314L349.895 151.887C343.127 156.617 332.679 158.588 327.751 159.792C318.923 161.942 320.025 154.718 318.456 157.639C316.887 160.559 312.307 158.097 308.998 157.639C305.69 157.18 303.955 158.405 301.276 160.717C298.598 163.029 295.92 161.017 292.612 160.717C289.303 160.417 294.501 155.485 289.145 155.485C283.788 155.485 285.678 151.948 285.678 151.948C300.31 152.841 338.012 140.308 350.469 136L351.808 99.2168C345.033 103.796 334.827 105.706 329.969 106.923C321.146 109.073 322.247 101.845 320.675 104.769C319.102 107.694 314.529 105.228 311.217 104.769C307.905 104.311 306.158 105.512 303.499 107.824C300.841 110.135 298.143 108.124 294.834 107.824C291.526 107.523 296.72 102.591 291.363 102.591C286.007 102.591 287.901 99.0546 287.901 99.0546C302.414 99.9428 339.633 87.6127 352.383 83.2079L353.076 64.1449L366.579 71.685L366.345 84.4612C377.395 88.2008 397.645 94.6985 412.954 97.6106L422.202 102.782C419.46 103.699 423.144 107.548 420.22 107.824C416.912 108.124 414.234 110.127 411.556 107.824C408.877 105.52 407.146 104.283 403.838 104.745C400.529 105.207 395.957 107.665 394.38 104.745C392.803 101.825 393.909 109.048 385.085 106.899C380.854 105.869 372.577 104.266 366.032 100.851L365.386 136.264C378.58 140.807 415.046 152.812 429.377 151.936C429.377 151.936 431.267 155.473 425.91 155.473C420.553 155.473 425.751 160.397 422.443 160.705C419.135 161.013 416.457 163.009 413.778 160.705C411.1 158.401 409.365 157.168 406.056 157.627C402.748 158.085 398.18 160.547 396.603 157.627C395.026 154.706 396.131 161.93 387.304 159.78C382.355 158.564 371.852 156.588 365.097 151.831L364.399 189.571C378.508 194.394 413.243 205.665 427.15 204.818C427.15 204.818 429.044 208.354 423.687 208.354C418.331 208.354 423.529 213.278 420.217 213.587C416.904 213.895 414.23 215.89 411.552 213.587C408.873 211.283 407.142 210.05 403.834 210.508C400.525 210.966 395.953 213.428 394.376 210.508C392.799 207.588 393.905 214.811 385.081 212.662C380.426 211.526 370.858 209.701 364.106 205.523L362.327 302.217C367.089 303.032 371.714 304.534 376.064 306.679C380.254 308.804 384.124 311.536 387.554 314.791L385.097 320.611C379.376 334.154 365.854 342.992 350.841 342.992H106.155C91.1424 342.992 77.6279 334.154 71.8988 320.611L54.2837 278.896C65.2166 276.609 76.4635 276.364 87.4815 278.174L90.2549 201.11C83.9156 204.14 76.3244 205.613 72.3347 206.59C63.5112 208.74 64.6126 201.512 63.0397 204.436C61.4668 207.361 56.8946 204.895 53.5824 204.436C50.2701 203.978 48.5427 205.203 45.8643 207.515C43.186 209.827 40.5077 207.815 37.1994 207.515C33.8911 207.215 39.0853 202.283 33.7287 202.283C28.372 202.283 30.2658 198.746 30.2658 198.746C43.5069 199.557 75.6469 189.364 90.8651 184.23L92.2597 145.803C85.4925 150.529 75.0447 152.504 70.1159 153.709C61.2885 155.858 62.39 148.63 60.821 151.555C59.252 154.479 54.6719 152.013 51.3636 151.555C48.0554 151.097 46.32 152.321 43.6417 154.629C40.9633 156.937 38.285 154.933 34.9767 154.629C31.6684 154.325 36.8864 149.405 31.5297 149.405Z"
      fill="#B3157B"
    />
    <path
      d="M101.571 74.6173C98.8922 92.6907 106.325 108.837 106.325 108.837C106.325 108.837 118.12 95.6799 120.798 77.6066C123.477 59.5332 116.024 43.3865 116.024 43.3865C116.024 43.3865 104.249 56.544 101.571 74.6173Z"
      fill="#B3157B"
    />
    <path
      d="M51.7679 103.423C42.049 103.313 34.113 108.647 34.113 108.647C34.113 108.647 41.9341 114.159 51.653 114.268C61.3718 114.378 69.3078 109.04 69.3078 109.04C69.3078 109.04 61.4867 103.528 51.7679 103.423Z"
      fill="#B3157B"
    />
    <path
      d="M79.0979 75.9479C88.1432 86.1243 90.0569 99.4238 90.0569 99.4238C90.0569 99.4238 77.3071 96.2195 68.2657 86.0391C59.2244 75.8587 57.3068 62.5632 57.3068 62.5632C57.3068 62.5632 70.0526 65.7674 79.0979 75.9479Z"
      fill="#B3157B"
    />
    <path
      d="M66.1896 89.0972H330.164C333.746 89.0972 336.649 92.0698 336.649 95.7368V336.36C336.649 340.027 333.746 343 330.164 343H66.1896C62.6076 343 59.7038 340.027 59.7038 336.36V95.7368C59.7038 92.0698 62.6076 89.0972 66.1896 89.0972Z"
      fill="#464353"
    />
    <g opacity="0.1">
      <path
        opacity="0.1"
        d="M91.4712 220.798L98.4364 224.229L154.697 251.997L159.662 254.43C160.002 254.595 160.372 254.687 160.748 254.701C161.124 254.715 161.499 254.65 161.85 254.511C162.201 254.372 162.521 254.161 162.79 253.891C163.058 253.621 163.271 253.298 163.414 252.942C163.545 252.608 163.613 252.251 163.612 251.891V235.489C163.612 234.739 163.901 234.02 164.417 233.488C164.933 232.956 165.633 232.655 166.365 232.65H303.689C304.422 232.65 305.124 232.353 305.643 231.825C306.163 231.297 306.458 230.58 306.463 229.831V206.671C306.463 205.918 306.171 205.196 305.65 204.664C305.13 204.131 304.425 203.832 303.689 203.832H166.365C165.637 203.827 164.939 203.528 164.424 203C163.909 202.473 163.617 201.759 163.612 201.013V184.246C163.613 183.886 163.545 183.529 163.414 183.195C163.27 182.838 163.057 182.515 162.787 182.246C162.517 181.976 162.197 181.765 161.845 181.627C161.493 181.488 161.117 181.425 160.74 181.44C160.364 181.455 159.994 181.548 159.654 181.715L154.697 184.185L98.4364 212.244L91.4593 215.712C90.9973 215.948 90.6089 216.312 90.3378 216.762C90.0667 217.212 89.9237 217.73 89.925 218.259C89.9262 218.787 90.0716 219.305 90.3448 219.754C90.618 220.203 91.0081 220.564 91.4712 220.798Z"
        fill="black"
      />
    </g>
    <path
      d="M91.4712 218.77L98.4364 222.201L154.697 249.969L159.662 252.402C160.002 252.567 160.372 252.659 160.748 252.673C161.124 252.687 161.499 252.622 161.85 252.483C162.201 252.344 162.521 252.133 162.79 251.863C163.058 251.593 163.271 251.27 163.414 250.914C163.545 250.58 163.613 250.223 163.612 249.863V233.461C163.612 232.711 163.901 231.992 164.417 231.46C164.933 230.928 165.633 230.627 166.365 230.622H303.689C304.422 230.622 305.124 230.325 305.643 229.797C306.163 229.269 306.458 228.552 306.463 227.803V204.643C306.463 203.89 306.171 203.168 305.65 202.636C305.13 202.103 304.425 201.804 303.689 201.804H166.365C165.637 201.799 164.939 201.5 164.424 200.973C163.909 200.445 163.617 199.731 163.612 198.985V182.218C163.613 181.858 163.545 181.501 163.414 181.167C163.27 180.811 163.057 180.487 162.787 180.218C162.517 179.948 162.197 179.737 161.845 179.599C161.493 179.46 161.117 179.397 160.74 179.412C160.364 179.427 159.994 179.521 159.654 179.687L154.697 182.157L98.4364 210.216L91.4593 213.684C90.9973 213.92 90.6089 214.284 90.3378 214.734C90.0667 215.184 89.9237 215.702 89.925 216.231C89.9262 216.76 90.0716 217.277 90.3448 217.726C90.618 218.175 91.0081 218.536 91.4712 218.77Z"
      fill="#B3157B"
    />
    <path
      d="M387.732 274.17C387.597 277.561 389.713 280.567 391.694 283.268C392.594 284.534 393.409 285.862 394.131 287.243C396.31 291.217 400.993 293.108 403.528 296.855C404.143 297.764 404.618 298.762 405.153 299.723C406.99 303.029 409.297 306.036 411.999 308.646L416.583 313.043C417.887 314.292 419.218 315.578 419.991 317.228C420.874 319.131 420.922 321.284 420.87 323.414C420.87 323.649 420.87 323.88 420.87 324.111C420.87 324.274 420.87 324.432 420.87 324.594C420.791 327.169 420.676 329.757 420.078 332.252C419.88 333.063 419.634 333.915 419.943 334.685C420.272 335.496 421.132 335.947 421.968 336.23C422.863 336.535 423.846 336.742 424.741 336.421C425.637 336.101 426.255 335.31 426.805 334.531C429.48 330.759 430.565 326.103 432.158 321.734C432.491 320.826 432.134 319.788 431.548 319.029C430.912 318.312 430.211 317.658 429.456 317.074C426.286 314.235 424.824 309.976 423.612 305.864C422.4 301.751 421.235 297.447 418.481 294.219C416.69 292.122 414.341 290.621 412.344 288.731C407.372 284.018 404.887 277.139 403.588 270.325C402.058 270.033 400.49 270.013 398.952 270.264L390.779 271.376C389.895 271.497 388.928 271.664 388.354 272.357C387.959 272.876 387.74 273.513 387.732 274.17Z"
      fill="#EFB7B9"
    />
    <path
      d="M352.842 281.082C353.015 282.346 353.451 283.558 354.122 284.635C355.114 286.185 356.235 287.644 357.474 288.995C360.596 292.645 361.123 297.886 363.112 302.303C363.758 303.738 364.558 305.093 365.212 306.521C366.927 310.277 367.557 314.41 367.93 318.563C367.977 319.098 368.021 319.634 368.06 320.165C368.116 320.826 368.159 321.487 368.207 322.144C368.33 323.884 368.437 325.714 367.72 327.295C367.351 328.107 366.749 328.78 366.725 329.676C367.953 330.893 370.061 330.755 371.48 329.765C372.898 328.776 373.782 327.17 374.499 325.567C375.816 322.631 376.767 319.536 377.332 316.356C377.549 315.14 377.649 313.732 376.805 312.856C376.381 312.418 375.79 312.199 375.315 311.818C374.273 310.982 373.972 309.522 373.73 308.167C372.938 303.571 372.136 298.974 371.325 294.377C371.147 293.253 370.913 292.139 370.624 291.039C369.946 288.61 368.916 285.88 366.967 284.258C366.716 284.02 366.528 283.72 366.42 283.387C366.313 283.055 366.29 282.7 366.353 282.355C366.49 281.67 366.748 281.016 367.113 280.425C368.568 277.764 370.303 275.095 372.918 273.635C370.204 271.31 367.109 269.494 363.777 268.273C363.19 267.994 362.54 267.88 361.895 267.945C361.551 268.024 361.222 268.161 360.921 268.35C359.126 269.38 357.751 271.003 356.436 272.625C354.475 275.067 352.513 277.938 352.842 281.082Z"
      fill="#EFB7B9"
    />
    <path
      d="M416.445 335.399C417.257 334.613 418.195 333.975 419.218 333.513C419.449 333.375 419.705 333.288 419.971 333.258C420.609 333.225 421.088 333.813 421.635 334.154C422.082 334.4 422.582 334.528 423.089 334.528C423.596 334.528 424.096 334.4 424.543 334.154C425.431 333.647 426.177 332.915 426.71 332.029C427.875 330.268 428.105 328.512 428.588 326.581L423.509 325.6C422.584 325.381 421.691 325.038 420.854 324.578C420.854 324.416 420.854 324.257 420.854 324.095C420.854 323.864 420.854 323.633 420.854 323.398C421.793 323.686 423.786 324.614 424.258 324.74C425.788 325.097 427.339 325.349 428.901 325.494C429.143 325.004 429.492 324.578 429.773 324.095C430.342 323.125 430.702 322.043 430.831 320.919C430.843 320.476 430.928 320.037 431.08 319.621C431.163 319.407 431.313 319.227 431.507 319.11C431.7 318.993 431.927 318.946 432.15 318.977C432.315 319.024 432.469 319.102 432.606 319.208C434.027 320.213 435.129 321.624 435.775 323.264C436.73 325.697 436.592 328.431 436.964 331.031C437.249 332.978 437.836 334.908 437.733 336.876C437.74 336.933 437.735 336.992 437.719 337.047C437.702 337.102 437.674 337.154 437.637 337.197C437.599 337.241 437.553 337.275 437.501 337.299C437.449 337.322 437.393 337.334 437.336 337.334C436.279 337.573 435.062 337.78 434.202 337.107C433.343 336.433 433.22 335.16 433.053 334.053C432.83 332.575 432.392 331.139 431.754 329.794C430.441 331.439 429.753 333.515 429.817 335.638C429.817 336.811 429.959 338.141 429.175 338.997C428.79 339.376 428.321 339.655 427.808 339.808C426.765 340.181 425.682 340.424 424.583 340.53C422.602 340.725 420.585 340.469 418.6 340.214C417.974 340.132 417.344 340.051 416.722 339.909C416.405 339.859 416.104 339.731 415.846 339.536C415.56 339.269 415.377 338.904 415.331 338.51C415.271 337.939 415.34 337.361 415.533 336.822C415.726 336.282 416.038 335.795 416.445 335.399Z"
      fill="#464353"
    />
    <path
      d="M364.035 328.873C364.519 328.424 365.067 328.052 365.659 327.77C366.14 327.466 366.682 327.278 367.244 327.222C367.89 327.222 368.48 327.547 369.079 327.798C369.677 328.05 370.378 328.204 370.941 327.879C371.383 327.547 371.707 327.075 371.864 326.537C372.577 324.793 373.116 322.976 373.738 321.199C373.592 320.964 373.377 320.781 373.124 320.676C372.928 320.619 372.725 320.595 372.522 320.603C371.729 320.603 369.32 320.603 368.041 320.149C368.001 319.617 367.957 319.082 367.91 318.547C368.9 318.336 370.6 318.701 371.048 318.827C371.781 319.017 372.53 319.297 373.27 319.135C373.786 319.025 374.273 318.705 374.776 318.636C375.014 318.186 375.271 317.752 375.517 317.31C376.143 316.174 376.337 314.852 376.947 313.753C377.039 313.562 377.178 313.398 377.35 313.28C377.523 313.161 377.722 313.09 377.93 313.075C378.374 313.141 378.775 313.383 379.047 313.748C380.057 314.799 381.095 315.886 381.674 317.237C381.921 317.847 382.112 318.48 382.244 319.127C383.077 322.758 383.476 326.478 383.433 330.208C382.513 330.508 381.54 330.602 380.58 330.483C380.089 327.974 379.488 325.491 378.778 323.033C378.761 322.94 378.712 322.858 378.639 322.801C378.485 322.716 378.322 322.891 378.243 323.045C377.378 324.363 376.677 325.787 376.159 327.283C375.838 328.35 375.691 329.506 375.085 330.435C374.437 331.348 373.496 332 372.427 332.276C371.365 332.547 370.276 332.692 369.182 332.706L367.557 332.787C366.678 332.893 365.787 332.821 364.934 332.576C364.102 332.28 363.35 331.554 363.286 330.654C363.281 330.32 363.345 329.988 363.474 329.681C363.603 329.374 363.794 329.099 364.035 328.873Z"
      fill="#464353"
    />
    <path
      d="M356.416 271.311C357.082 272.009 358.06 272.272 358.987 272.503L361.804 273.205C361.96 273.222 362.11 273.272 362.247 273.351C362.383 273.43 362.502 273.536 362.597 273.663C362.759 273.964 362.644 274.341 362.724 274.673C362.755 274.805 362.816 274.927 362.902 275.03C363.3 275.393 363.82 275.584 364.352 275.562C364.816 275.542 365.28 275.613 365.719 275.768C365.903 275.85 366.062 275.982 366.178 276.15C366.321 276.361 366.381 276.62 366.531 276.823C366.788 277.106 367.132 277.29 367.506 277.342C367.897 277.433 368.294 277.495 368.694 277.529C370.263 277.662 371.837 277.358 373.251 276.649C373.584 276.413 373.991 276.314 374.392 276.369C374.627 276.454 374.826 276.619 374.958 276.835C375.103 277.066 375.261 277.288 375.43 277.5C376.159 278.312 377.411 278.092 378.461 277.865C379.107 277.723 379.756 277.602 380.406 277.492C384.289 276.843 388.247 276.713 392.201 276.596C397.312 276.438 402.423 276.296 407.372 275.059C408.449 274.791 409.749 274.158 409.697 273.031C409.662 272.386 409.162 271.814 409.166 271.181C409.166 270.078 410.486 269.486 411.544 269.303C411.147 263.276 407.625 257.999 405.783 252.268C405.323 250.845 404.99 249.384 404.471 247.977C402.229 241.634 397.304 236.766 393.207 231.486C392.581 230.745 392.065 229.912 391.678 229.015C391.326 227.939 391.143 226.812 391.135 225.677L390.909 221.707C384.836 221.415 378.936 221.532 372.993 222.846C372.833 222.841 372.673 222.869 372.523 222.928C372.373 222.986 372.236 223.075 372.12 223.188C372.003 223.301 371.91 223.437 371.845 223.587C371.78 223.737 371.745 223.899 371.741 224.063C371.511 225.515 371.35 226.974 371.258 228.44C371.255 228.763 371.21 229.085 371.123 229.397C370.967 229.791 370.75 230.156 370.481 230.48C367.042 235.095 364.934 240.62 363.27 246.152C361.606 251.684 360.283 257.371 358.191 262.781C357.47 264.647 356.527 266.744 356.337 268.744C355.584 269.315 355.75 270.609 356.416 271.311Z"
      fill="#464353"
    />
    <path
      opacity="0.1"
      d="M380.402 277.492C384.285 276.843 388.243 276.713 392.197 276.596C392.089 272.864 391.979 269.133 391.868 265.401C391.793 262.919 391.722 260.433 391.432 257.971C391.036 254.467 390.188 251.031 389.768 247.531C389.53 245.526 389.42 243.507 389.44 241.488C389.459 239.431 389.602 237.363 389.273 235.335C389.004 233.668 388.291 231.307 386.785 230.395C385.779 231.806 387.324 235.748 387.506 237.436C387.878 240.948 386.951 244.448 386.155 247.884C385.196 252.009 384.412 256.174 383.631 260.34C382.554 266.056 381.477 271.773 380.402 277.492Z"
      fill="black"
    />
    <path
      opacity="0.1"
      d="M368.69 277.529C370.259 277.662 371.833 277.358 373.247 276.649C373.58 276.414 373.987 276.314 374.388 276.369C374.623 276.454 374.823 276.619 374.954 276.835C376.294 270.326 376.222 263.552 377.28 256.961C377.676 254.617 378.183 252.224 377.74 249.892C377.264 247.401 375.731 245.239 375.133 242.777C374.736 241.155 374.768 239.48 374.796 237.821C374.824 236.162 375.299 235.047 375.83 233.566C374.419 233.806 373.27 235.221 372.704 236.499C372.011 238.056 371.88 239.804 371.789 241.516C371.567 245.649 371.531 249.786 371.591 253.923C371.667 255.853 371.625 257.786 371.464 259.711C371.258 261.605 370.802 263.467 370.652 265.365C370.477 267.645 370.739 269.977 370.196 272.195C369.76 273.984 368.813 275.769 368.69 277.529Z"
      fill="black"
    />
    <path
      opacity="0.1"
      d="M362.91 275.03C363.307 275.393 363.827 275.584 364.36 275.562C364.824 275.542 365.288 275.613 365.727 275.768C366.519 270.82 367.302 265.875 368.076 260.932C368.402 259.111 368.63 257.274 368.758 255.428C368.861 253.29 368.698 251.149 368.845 249.015C369.023 246.391 369.665 243.836 370.279 241.309C370.644 239.796 372.316 235.286 371.381 234.008C369.923 234.974 369.035 237.038 368.54 238.685C368.029 240.589 367.704 242.54 367.569 244.509L366.452 255.955C365.834 262.286 365.196 268.699 363.037 274.669C362.993 274.791 362.949 274.929 362.91 275.03Z"
      fill="black"
    />
    <path
      d="M350.643 204.801C349.597 203.897 348.551 202.988 347.593 201.991C346.24 200.523 344.99 198.959 343.852 197.31C342.64 195.619 341.436 193.887 340.683 191.932C339.831 189.693 339.569 187.146 338.088 185.288C337.92 185.047 337.687 184.861 337.418 184.753C336.574 184.481 335.944 185.564 335.782 186.46C334.989 190.849 336.879 195.229 338.718 199.277C339.324 200.612 339.958 201.982 341.008 202.992C341.562 203.524 342.196 203.933 342.81 204.408C343.739 205.18 344.593 206.041 345.362 206.979C346.683 208.515 347.939 210.107 349.13 211.753C350.608 213.781 351.994 215.907 353.746 217.695C355.497 219.484 357.688 220.94 360.14 221.293C359.439 221.196 359.669 216.981 359.744 216.45C359.851 215.679 360.366 214.771 360.382 214.017C360.402 213.092 360.033 212.958 359.288 212.309L350.643 204.801Z"
      fill="#EFB7B9"
    />
    <path
      opacity="0.1"
      d="M350.643 204.801C349.597 203.897 348.551 202.988 347.593 201.991C346.24 200.523 344.99 198.959 343.852 197.31C342.64 195.619 341.436 193.887 340.683 191.932C339.831 189.693 339.569 187.146 338.088 185.288C337.92 185.047 337.687 184.861 337.418 184.753C336.574 184.481 335.944 185.564 335.782 186.46C334.989 190.849 336.879 195.229 338.718 199.277C339.324 200.612 339.958 201.982 341.008 202.992C341.562 203.524 342.196 203.933 342.81 204.408C343.739 205.18 344.593 206.041 345.362 206.979C346.683 208.515 347.939 210.107 349.13 211.753C350.608 213.781 351.994 215.907 353.746 217.695C355.497 219.484 357.688 220.94 360.14 221.293C359.439 221.196 359.669 216.981 359.744 216.45C359.851 215.679 360.366 214.771 360.382 214.017C360.402 213.092 360.033 212.958 359.288 212.309L350.643 204.801Z"
      fill="black"
    />
    <path
      d="M380.05 178.259C380.05 178.259 382.427 190.427 385.2 192.455C387.974 194.483 370.144 196.917 370.144 196.917C370.144 196.917 369.748 187.182 364.994 182.721C360.239 178.259 380.05 178.259 380.05 178.259Z"
      fill="#EFB7B9"
    />
    <path
      d="M384.78 191.259C385.956 191.423 387.035 192.013 387.823 192.922C389.693 194.982 390.066 198.117 389.408 200.851C388.75 203.585 387.241 206.006 385.672 208.314C383.627 211.323 381.428 214.288 378.588 216.523C377.051 217.662 375.456 218.717 373.809 219.683C371.073 221.408 368.444 223.304 365.937 225.361C365.387 225.871 364.758 226.282 364.075 226.578C363.487 226.766 362.871 226.849 362.256 226.821C360.176 226.798 358.126 226.309 356.25 225.389C356.074 225.32 355.918 225.205 355.798 225.057C355.728 224.902 355.69 224.733 355.687 224.562C355.683 224.391 355.714 224.221 355.778 224.063C356.895 219.439 354.74 214.195 356.88 209.969C359.205 210.743 361.757 211.591 364.083 212.346C364.439 212.494 364.823 212.56 365.208 212.54C365.668 212.442 366.09 212.207 366.42 211.863C368.94 209.632 370.529 206.525 371.967 203.455C373.405 200.385 374.816 197.217 377.082 194.718C379.348 192.22 381.468 190.898 384.78 191.259Z"
      fill="#B3157B"
    />
    <path
      opacity="0.1"
      d="M384.78 191.259C385.956 191.423 387.035 192.013 387.823 192.922C389.693 194.982 390.066 198.117 389.408 200.851C388.75 203.585 387.241 206.006 385.672 208.314C383.627 211.323 381.428 214.288 378.588 216.523C377.051 217.662 375.456 218.717 373.809 219.683C371.073 221.408 368.444 223.304 365.937 225.361C365.387 225.871 364.758 226.282 364.075 226.578C363.487 226.766 362.871 226.849 362.256 226.821C360.176 226.798 358.126 226.309 356.25 225.389C356.074 225.32 355.918 225.205 355.798 225.057C355.728 224.902 355.69 224.733 355.687 224.562C355.683 224.391 355.714 224.221 355.778 224.063C356.895 219.439 354.74 214.195 356.88 209.969C359.205 210.743 361.757 211.591 364.083 212.346C364.439 212.494 364.823 212.56 365.208 212.54C365.668 212.442 366.09 212.207 366.42 211.863C368.94 209.632 370.529 206.525 371.967 203.455C373.405 200.385 374.816 197.217 377.082 194.718C379.348 192.22 381.468 190.898 384.78 191.259Z"
      fill="black"
    />
    <path
      d="M370.739 187.385C364.174 187.385 358.853 181.937 358.853 175.217C358.853 168.497 364.174 163.049 370.739 163.049C377.303 163.049 382.625 168.497 382.625 175.217C382.625 181.937 377.303 187.385 370.739 187.385Z"
      fill="#EFB7B9"
    />
    <path
      d="M365.984 210.236L366.012 210.289C366.697 211.591 367.724 212.686 368.429 213.984C369.221 215.452 369.59 217.127 369.907 218.778C370.126 219.887 370.328 220.997 370.513 222.108C370.703 223.236 370.881 224.363 371.044 225.499C374.633 224.254 378.611 226.343 382.328 225.58C383.441 225.353 384.507 224.874 385.64 224.822C386.468 224.781 387.3 224.972 388.128 224.891C389.503 224.757 390.866 223.872 392.177 224.323C392.764 224.525 393.489 224.955 393.909 224.489C394.003 224.368 394.076 224.231 394.123 224.083C394.463 223.122 394.812 222.088 394.566 221.098C394.356 220.255 393.75 219.585 393.33 218.827C392.605 217.509 392.459 215.947 392.364 214.434C392.122 210.524 392.13 206.586 391.504 202.721C390.878 198.855 389.558 195.014 387.007 192.078C385.755 190.642 384.119 189.421 382.252 189.263C375.386 188.695 369.831 192.573 366.832 198.73C365.089 202.299 364.162 206.704 365.984 210.236Z"
      fill="#B3157B"
    />
    <path
      d="M345.889 206.424C344.843 205.519 343.797 204.611 342.838 203.613C341.485 202.145 340.235 200.581 339.098 198.933C337.886 197.241 336.681 195.509 335.928 193.554C335.077 191.315 334.815 188.768 333.333 186.911C333.166 186.669 332.933 186.483 332.664 186.375C331.82 186.104 331.19 187.187 331.027 188.083C330.235 192.471 332.125 196.852 333.963 200.9C334.569 202.234 335.203 203.605 336.253 204.615C336.808 205.146 337.442 205.556 338.056 206.031C338.984 206.803 339.839 207.664 340.608 208.602C341.928 210.138 343.184 211.729 344.375 213.376C345.853 215.404 347.24 217.529 348.991 219.318C350.742 221.106 352.933 222.563 355.386 222.915C354.685 222.818 354.914 218.604 354.99 218.073C355.097 217.302 355.612 216.393 355.628 215.639C355.647 214.714 355.279 214.58 354.534 213.931L345.889 206.424Z"
      fill="#EFB7B9"
    />
    <path
      opacity="0.1"
      d="M367.173 210.642L367.201 210.695C367.886 211.997 368.912 213.092 369.617 214.39C370.41 215.858 370.778 217.533 371.095 219.184C371.315 220.292 371.517 221.402 371.702 222.514C373.124 221.678 374.5 220.762 375.822 219.768C378.663 217.533 380.862 214.568 382.906 211.555C384.491 209.247 385.997 206.825 386.642 204.096C387.288 201.366 386.912 198.227 385.058 196.166C384.27 195.257 383.191 194.666 382.015 194.499C378.702 194.138 376.61 195.448 374.344 197.943C372.078 200.437 370.675 203.621 369.229 206.679C368.587 208.006 367.93 209.364 367.173 210.642Z"
      fill="black"
    />
    <path
      d="M380.026 192.881C381.201 193.046 382.281 193.635 383.069 194.544C384.939 196.604 385.311 199.74 384.653 202.473C383.996 205.207 382.486 207.628 380.917 209.936C378.873 212.946 376.674 215.911 373.833 218.146C372.296 219.285 370.701 220.34 369.055 221.305C366.319 223.03 363.69 224.927 361.182 226.983C360.633 227.493 360.003 227.904 359.32 228.2C358.732 228.389 358.117 228.471 357.502 228.444C355.421 228.42 353.371 227.932 351.495 227.012C351.319 226.942 351.164 226.828 351.044 226.679C350.974 226.524 350.936 226.356 350.932 226.185C350.929 226.014 350.96 225.844 351.024 225.686C352.141 221.062 349.986 215.817 352.125 211.591C354.451 212.366 357.002 213.213 359.328 213.968C359.685 214.116 360.069 214.183 360.453 214.163C360.914 214.065 361.336 213.829 361.666 213.485C364.186 211.254 365.774 208.148 367.213 205.077C368.651 202.007 370.061 198.839 372.328 196.341C374.594 193.842 376.713 192.52 380.026 192.881Z"
      fill="#B3157B"
    />
    <path
      d="M363.052 166.72C361.899 165.378 362.145 163.212 363.151 161.752C364.158 160.291 365.743 159.375 367.284 158.539C369.736 157.205 372.557 155.915 375.208 156.795C376.242 157.14 377.145 157.793 378.096 158.336C379.847 159.334 381.777 159.959 383.56 160.892C385.343 161.825 387.046 163.155 387.815 165.049C388.584 166.943 388.33 168.983 388.132 170.975C387.831 174.057 387.657 177.184 388.077 180.255C388.497 183.325 389.539 186.363 391.452 188.772C392.791 190.46 394.566 191.863 395.371 193.875C395.766 195.033 395.988 196.246 396.028 197.472L396.46 202.7C396.631 204.785 396.888 207.065 398.358 208.517C396.472 208.071 394.535 207.6 392.942 206.489C391.995 205.764 391.133 204.931 390.371 204.006C388.865 202.307 387.3 200.494 386.848 198.247C386.512 196.568 386.793 194.662 385.794 193.287C384.606 191.664 382.122 191.664 380.454 192.723C378.786 193.781 377.767 195.639 376.888 197.432C376.008 199.224 375.097 201.111 373.56 202.368C372.298 203.348 370.815 203.986 369.249 204.225C368.195 204.424 366.999 204.481 366.167 203.792C365.029 202.851 365.144 201.058 365.513 199.61C366 197.691 366.757 195.692 366.23 193.781C366.056 193.145 365.743 192.565 365.548 191.924C365.317 191.008 365.209 190.063 365.228 189.117C365.117 184.359 364.907 179.237 366.416 174.662C366.9 173.197 368.195 171.802 367.529 170.2C366.701 168.257 364.312 168.188 363.052 166.72Z"
      fill="#464353"
    />
    <g opacity="0.1">
      <path
        opacity="0.1"
        d="M387.851 174.856C387.787 172.612 387.879 170.366 388.124 168.136C388.168 167.698 388.215 167.255 388.251 166.809C388.361 168.198 388.318 169.596 388.124 170.975C387.997 172.265 387.898 173.562 387.851 174.856Z"
        fill="black"
      />
      <path
        opacity="0.1"
        d="M366.167 200.952C366.999 201.642 368.195 201.585 369.249 201.386C370.815 201.147 372.298 200.508 373.56 199.529C375.085 198.255 375.969 196.373 376.864 194.576C377.759 192.78 378.778 190.926 380.43 189.867C382.082 188.809 384.606 188.813 385.794 190.431C386.793 191.806 386.512 193.712 386.848 195.392C387.3 197.639 388.865 199.448 390.371 201.151C391.133 202.076 391.995 202.909 392.942 203.633C394.123 204.408 395.426 204.966 396.793 205.284C396.982 206.503 397.528 207.634 398.358 208.529C396.472 208.083 394.535 207.612 392.942 206.501C391.995 205.776 391.133 204.944 390.371 204.019C388.865 202.319 387.3 200.506 386.848 198.259C386.512 196.58 386.793 194.674 385.794 193.299C384.606 191.676 382.122 191.676 380.454 192.735C378.786 193.794 377.767 195.651 376.888 197.444C376.008 199.237 375.097 201.11 373.56 202.368C372.298 203.347 370.815 203.986 369.249 204.225C368.195 204.424 366.999 204.481 366.167 203.791C365.101 202.911 365.136 201.277 365.449 199.886C365.584 200.304 365.832 200.675 366.167 200.952Z"
        fill="black"
      />
      <path
        opacity="0.1"
        d="M363.052 163.881C364.312 165.349 366.701 165.422 367.522 167.377C367.882 168.233 367.668 169.036 367.319 169.811C366.361 168.233 364.221 168.071 363.052 166.708C362.201 165.714 362.113 164.274 362.533 162.997C362.655 163.32 362.831 163.619 363.052 163.881Z"
        fill="black"
      />
      <path
        opacity="0.1"
        d="M365.228 186.278C365.209 187.224 365.317 188.168 365.548 189.084C365.743 189.717 366.056 190.301 366.23 190.942C366.456 191.903 366.456 192.905 366.23 193.866C366.23 193.838 366.23 193.81 366.23 193.781C366.056 193.144 365.743 192.564 365.548 191.924C365.317 191.007 365.209 190.063 365.228 189.117C365.184 187.223 365.125 185.276 365.164 183.325C365.192 184.319 365.192 185.292 365.228 186.278Z"
        fill="black"
      />
    </g>
  </g>
  <defs>
    <clipPath id="clip0">
      <rect
        width="457"
        height="343"
        fill="white"
        transform="matrix(-1 0 0 1 457 0)"
      />
    </clipPath>
  </defs>
</svg>
