<svg
  width="20"
  height="20"
  viewBox="0 0 20 20"
  fill="none"
  xmlns="http://www.w3.org/2000/svg"
>
  <path
    d="M9.99875 0.208008C4.4775 0.208008 0 4.70301 0 10.248C0 14.683 2.865 18.4455 6.84 19.7743C7.34 19.8668 7.5225 19.5568 7.5225 19.2905C7.5225 19.0518 7.51375 18.4205 7.50875 17.583C4.7275 18.1893 4.14 16.2368 4.14 16.2368C3.68625 15.0768 3.03 14.768 3.03 14.768C2.12125 14.1455 3.0975 14.158 3.0975 14.158C4.10125 14.2293 4.62875 15.193 4.62875 15.193C5.52125 16.7268 6.97 16.2843 7.54 16.0268C7.63 15.378 7.88875 14.9355 8.175 14.6843C5.955 14.4305 3.62 13.5693 3.62 9.72301C3.62 8.62676 4.01 7.73051 4.65 7.02801C4.54625 6.77426 4.20375 5.75301 4.7475 4.37176C4.7475 4.37176 5.5875 4.10176 7.4975 5.40051C8.295 5.17801 9.15 5.06676 10.0013 5.06301C10.85 5.06801 11.7062 5.17801 12.505 5.40176C14.4137 4.10301 15.2525 4.37301 15.2525 4.37301C15.7975 5.75551 15.455 6.77551 15.3525 7.02926C15.9937 7.73176 16.38 8.62801 16.38 9.72426C16.38 13.5805 14.0425 14.4293 11.815 14.678C12.1737 14.988 12.4937 15.6005 12.4937 16.5368C12.4937 17.8793 12.4812 18.9618 12.4812 19.2905C12.4812 19.5593 12.6613 19.8718 13.1687 19.773C17.1375 18.443 20 14.6818 20 10.248C20 4.70301 15.5225 0.208008 9.99875 0.208008Z"
    fill="white"
  />
</svg>
