<svg width="775" height="564" viewBox="0 0 775 564" fill="none" xmlns="http://www.w3.org/2000/svg">
<path d="M72.4631 27.9807C204.073 -56.8237 689.152 73.5997 719.234 122.477C749.317 171.355 745.556 174.613 719.234 308.212C692.912 441.81 794.439 601.477 544.38 552.599C294.321 503.722 125.107 614.511 72.4631 533.048C19.8186 451.586 -59.147 112.785 72.4631 27.9807Z" fill="#F4F4F4"/>
<path d="M181.566 63.1639C290.932 -5.54944 694.025 100.127 719.023 139.73C744.021 179.334 740.896 181.974 719.023 290.223C697.15 398.472 781.518 527.843 573.722 488.239C365.926 448.636 225.312 538.403 181.565 472.398C137.819 406.392 72.1994 131.877 181.566 63.1639Z" fill="#F2F2F2"/>
<path d="M262.596 82.8322C356.198 17.8102 701.191 117.81 722.585 155.285C743.98 192.761 741.306 195.26 722.585 297.694C703.865 400.128 776.072 522.549 598.228 485.073C420.383 447.597 300.037 532.542 262.596 470.082C225.155 407.623 168.994 147.854 262.596 82.8322Z" fill="#F0EAEE"/>
<g clip-path="url(#clip0)">
<path d="M467.094 126.566C471.304 151.181 459.62 173.173 459.62 173.173C459.62 173.173 441.08 155.258 436.87 130.637C432.66 106.016 444.344 84.0301 444.344 84.0301C444.344 84.0301 462.884 101.939 467.094 126.566Z" fill="#B3157B"/>
<path d="M545.378 165.787C560.654 165.638 573.129 172.908 573.129 172.908C573.129 172.908 560.835 180.415 545.558 180.559C530.281 180.702 517.807 173.438 517.807 173.438C517.807 173.438 530.101 165.936 545.378 165.787Z" fill="#B3157B"/>
<path d="M502.418 128.367C488.2 142.227 485.192 160.34 485.192 160.34C485.192 160.34 505.233 155.976 519.445 142.111C533.657 128.245 536.677 110.143 536.677 110.143C536.677 110.143 516.636 114.507 502.418 128.367Z" fill="#46455B"/>
<path opacity="0.1" d="M455.653 529.284C631.757 529.284 774.518 523.472 774.518 516.303C774.518 509.133 631.757 503.321 455.653 503.321C279.549 503.321 136.789 509.133 136.789 516.303C136.789 523.472 279.549 529.284 455.653 529.284Z" fill="#B3157B"/>
<path d="M266.514 385.492H360.33V512.32H258.854V385.492H266.514Z" fill="#EEEFF0"/>
<path d="M347.513 403.677H271.665V418.222H347.513V403.677Z" fill="#B3157B"/>
<path d="M340.856 436.181H278.328V437.093H340.856V436.181Z" fill="#373E46"/>
<path d="M340.856 441.18H278.328V442.092H340.856V441.18Z" fill="#373E46"/>
<path d="M340.856 446.18H278.328V447.091H340.856V446.18Z" fill="#373E46"/>
<path d="M340.856 451.179H278.328V452.09H340.856V451.179Z" fill="#373E46"/>
<path d="M340.856 456.178H278.328V457.09H340.856V456.178Z" fill="#373E46"/>
<path d="M340.856 461.183H278.328V462.095H340.856V461.183Z" fill="#373E46"/>
<path d="M340.856 466.182H278.328V467.094H340.856V466.182Z" fill="#373E46"/>
<path d="M340.856 471.182H278.328V472.093H340.856V471.182Z" fill="#373E46"/>
<path d="M340.856 476.181H278.328V477.093H340.856V476.181Z" fill="#373E46"/>
<path d="M340.856 481.18H278.328V482.092H340.856V481.18Z" fill="#373E46"/>
<path d="M340.856 486.185H278.328V487.097H340.856V486.185Z" fill="#373E46"/>
<path d="M412.575 385.492H506.391V512.32H404.915V385.492H412.575Z" fill="#EEEFF0"/>
<path d="M493.575 403.677H417.726V418.222H493.575V403.677Z" fill="#B3157B"/>
<path d="M486.917 436.181H424.39V437.093H486.917V436.181Z" fill="#373E46"/>
<path d="M486.917 441.18H424.39V442.092H486.917V441.18Z" fill="#373E46"/>
<path d="M486.917 446.18H424.39V447.091H486.917V446.18Z" fill="#373E46"/>
<path d="M486.917 451.179H424.39V452.09H486.917V451.179Z" fill="#373E46"/>
<path d="M486.917 456.178H424.39V457.09H486.917V456.178Z" fill="#373E46"/>
<path d="M486.917 461.183H424.39V462.095H486.917V461.183Z" fill="#373E46"/>
<path d="M486.917 466.182H424.39V467.094H486.917V466.182Z" fill="#373E46"/>
<path d="M486.917 471.182H424.39V472.093H486.917V471.182Z" fill="#373E46"/>
<path d="M486.917 476.181H424.39V477.093H486.917V476.181Z" fill="#373E46"/>
<path d="M486.917 481.18H424.39V482.092H486.917V481.18Z" fill="#373E46"/>
<path d="M486.917 486.185H424.39V487.097H486.917V486.185Z" fill="#373E46"/>
<path d="M558.637 385.492H652.453V512.32H550.976V385.492H558.637Z" fill="#EEEFF0"/>
<path d="M639.642 403.677H563.793V418.222H639.642V403.677Z" fill="#B3157B"/>
<path d="M632.978 436.181H570.451V437.093H632.978V436.181Z" fill="#373E46"/>
<path d="M632.978 441.18H570.451V442.092H632.978V441.18Z" fill="#373E46"/>
<path d="M632.978 446.18H570.451V447.091H632.978V446.18Z" fill="#373E46"/>
<path d="M632.978 451.179H570.451V452.09H632.978V451.179Z" fill="#373E46"/>
<path d="M632.978 456.178H570.451V457.09H632.978V456.178Z" fill="#373E46"/>
<path d="M632.978 461.183H570.451V462.095H632.978V461.183Z" fill="#373E46"/>
<path d="M632.978 466.182H570.451V467.094H632.978V466.182Z" fill="#373E46"/>
<path d="M632.978 471.182H570.451V472.093H632.978V471.182Z" fill="#373E46"/>
<path d="M632.978 476.181H570.451V477.093H632.978V476.181Z" fill="#373E46"/>
<path d="M632.978 481.18H570.451V482.092H632.978V481.18Z" fill="#373E46"/>
<path d="M632.978 486.185H570.451V487.097H632.978V486.185Z" fill="#373E46"/>
<path d="M455.653 385.492V298.211L309.592 385.492" stroke="#373E46" stroke-miterlimit="10"/>
<path d="M601.715 385.492L455.653 298.211" stroke="#373E46" stroke-miterlimit="10"/>
<g opacity="0.1">
<path opacity="0.1" d="M385.858 132.377H373.446V337.874H537.861V132.377H385.858Z" fill="black"/>
</g>
<path d="M388.673 136.52H534.547V333.731H376.759V136.52H388.673Z" fill="white"/>
<path d="M514.625 164.793H396.682V187.414H514.625V164.793Z" fill="#B3157B"/>
<path d="M504.268 215.333H407.045V216.747H504.268V215.333Z" fill="#373E46"/>
<path d="M504.268 223.105H407.045V224.519H504.268V223.105Z" fill="#373E46"/>
<path d="M504.268 230.883H407.045V232.297H504.268V230.883Z" fill="#373E46"/>
<path d="M504.268 238.656H407.045V240.07H504.268V238.656Z" fill="#373E46"/>
<path d="M504.268 246.434H407.045V247.848H504.268V246.434Z" fill="#373E46"/>
<path d="M504.268 254.211H407.045V255.626H504.268V254.211Z" fill="#373E46"/>
<path d="M504.268 261.984H407.045V263.398H504.268V261.984Z" fill="#373E46"/>
<path d="M504.268 269.762H407.045V271.176H504.268V269.762Z" fill="#373E46"/>
<path d="M504.268 277.534H407.045V278.948H504.268V277.534Z" fill="#373E46"/>
<path d="M504.268 285.312H407.045V286.726H504.268V285.312Z" fill="#373E46"/>
<path d="M504.268 293.085H407.045V294.499H504.268V293.085Z" fill="#373E46"/>
<path d="M219.394 471.762C219.5 473.971 217.925 475.91 216.424 477.662C215.748 478.482 215.138 479.344 214.599 480.241C212.967 482.816 209.461 484.042 207.562 486.473C207.107 487.064 206.752 487.71 206.347 488.334C204.972 490.474 203.245 492.42 201.222 494.107L197.821 496.957C196.789 497.715 195.924 498.634 195.268 499.67C194.698 500.944 194.472 502.32 194.608 503.686V504.139C194.608 504.244 194.608 504.343 194.608 504.448C194.611 506.12 194.82 507.787 195.23 509.42C195.455 509.919 195.489 510.47 195.33 510.988C195.173 511.242 194.956 511.462 194.695 511.636C194.435 511.809 194.135 511.931 193.817 511.994C193.162 512.237 192.434 512.279 191.749 512.115C191.107 511.854 190.569 511.426 190.205 510.889C188.199 508.447 187.39 505.426 186.194 502.603C186.097 502.299 186.089 501.979 186.169 501.672C186.25 501.365 186.417 501.081 186.655 500.846C187.13 500.382 187.654 499.959 188.218 499.581C190.585 497.747 191.687 494.98 192.577 492.312C193.468 489.643 194.352 486.854 196.42 484.76C197.759 483.401 199.534 482.423 201.016 481.203C204.753 478.142 206.621 473.684 207.568 469.265C208.713 469.072 209.887 469.059 211.037 469.226L217.152 469.944C217.825 469.953 218.472 470.179 218.971 470.58C219.253 470.922 219.402 471.337 219.394 471.762Z" fill="#EFB7B9"/>
<path d="M245.508 476.242C245.38 477.061 245.055 477.847 244.555 478.546C243.818 479.55 242.985 480.497 242.064 481.374C239.728 483.755 239.33 487.141 237.841 490.008C237.362 490.936 236.758 491.814 236.272 492.77C234.989 495.206 234.516 497.885 234.235 500.581C234.204 500.924 234.167 501.272 234.142 501.62C234.117 501.968 234.067 502.476 234.03 502.901C233.936 504.006 233.855 505.216 234.391 506.216C234.671 506.768 235.12 507.177 235.138 507.757C234.217 508.552 232.647 508.459 231.576 507.818C230.556 507.11 229.774 506.168 229.315 505.094C228.329 503.188 227.616 501.18 227.192 499.117C227.03 498.338 226.955 497.416 227.59 496.852C227.944 496.605 228.316 496.38 228.705 496.178C229.484 495.626 229.708 494.687 229.882 493.82C230.48 490.84 231.08 487.863 231.682 484.887C231.814 484.157 231.991 483.435 232.211 482.722C232.722 481.125 233.5 479.347 234.958 478.302C235.146 478.148 235.287 477.955 235.367 477.739C235.448 477.524 235.466 477.294 235.419 477.071C235.314 476.626 235.12 476.201 234.846 475.817C233.762 474.093 232.46 472.359 230.486 471.397C232.52 469.888 234.839 468.712 237.337 467.923C237.775 467.738 238.262 467.664 238.744 467.707C239.004 467.757 239.252 467.845 239.479 467.967C240.78 468.697 241.918 469.633 242.836 470.729C244.287 472.342 245.776 474.204 245.508 476.242Z" fill="#EFB7B9"/>
<path d="M197.908 511.469C197.303 510.958 196.601 510.545 195.835 510.248C195.664 510.156 195.473 510.098 195.274 510.077C194.795 510.077 194.433 510.442 194.029 510.63C193.694 510.79 193.319 510.874 192.939 510.874C192.558 510.874 192.184 510.79 191.849 510.63C191.187 510.3 190.629 509.827 190.23 509.254C189.358 508.111 189.183 506.973 188.822 505.719L192.627 505.083C193.319 504.939 193.987 504.716 194.614 504.42C194.614 504.315 194.614 504.216 194.614 504.111V503.658C193.91 503.84 192.422 504.454 192.067 504.525C190.922 504.755 189.761 504.92 188.592 505.017C188.411 504.697 188.149 504.42 187.969 504.106C187.541 503.479 187.27 502.778 187.172 502.051C187.164 501.761 187.101 501.476 186.985 501.205C186.925 501.071 186.817 500.958 186.677 500.883C186.538 500.808 186.375 500.776 186.213 500.791C186.088 500.819 185.971 500.87 185.87 500.94C184.803 501.596 183.976 502.513 183.491 503.581C182.781 505.161 182.868 506.928 182.6 508.613C182.382 509.878 181.947 511.132 182.021 512.408C182.02 512.477 182.041 512.544 182.084 512.602C182.148 512.657 182.231 512.692 182.32 512.701C183.111 512.856 184.027 512.994 184.668 512.557C185.31 512.121 185.403 511.292 185.528 510.574C185.693 509.616 186.018 508.685 186.493 507.812C187.475 508.879 187.988 510.225 187.938 511.602C187.938 512.359 187.838 513.226 188.423 513.778C188.711 514.023 189.062 514.201 189.445 514.298C190.226 514.537 191.038 514.693 191.861 514.762C193.358 514.84 194.859 514.771 196.339 514.557C196.806 514.507 197.279 514.452 197.74 514.364C197.978 514.327 198.203 514.244 198.4 514.121C198.613 513.945 198.75 513.708 198.787 513.452C198.819 513.084 198.756 512.715 198.604 512.371C198.452 512.028 198.214 511.719 197.908 511.469Z" fill="#464353"/>
<path d="M237.131 507.243C236.761 506.949 236.341 506.709 235.886 506.531C235.522 506.33 235.11 506.209 234.684 506.177C234.204 506.219 233.739 506.345 233.314 506.547C233.1 506.647 232.864 506.703 232.623 506.713C232.382 506.722 232.141 506.685 231.919 506.602C231.586 506.387 231.343 506.08 231.227 505.73C230.692 504.625 230.293 503.42 229.826 502.271C229.935 502.118 230.096 502 230.287 501.934C230.432 501.894 230.584 501.877 230.735 501.885C231.864 501.915 232.992 501.817 234.092 501.592C234.092 501.244 234.154 500.896 234.186 500.553C233.397 500.488 232.602 500.548 231.838 500.73C231.309 500.912 230.739 500.982 230.175 500.935C229.789 500.863 229.421 500.653 229.048 500.609C228.873 500.316 228.68 500.056 228.493 499.747C228.026 499.012 227.871 498.156 227.422 497.438C227.352 497.315 227.248 497.211 227.119 497.134C226.99 497.058 226.842 497.012 226.687 497.001C226.522 497.021 226.364 497.07 226.22 497.145C226.077 497.22 225.952 497.319 225.853 497.438C225.046 498.08 224.379 498.848 223.885 499.703C223.7 500.099 223.558 500.509 223.461 500.929C222.838 503.282 222.539 505.694 222.571 508.11C223.26 508.306 223.988 508.368 224.707 508.293C225.076 506.665 225.527 505.054 226.058 503.459C226.063 503.43 226.074 503.401 226.091 503.376C226.108 503.35 226.131 503.328 226.158 503.31C226.276 503.255 226.395 503.365 226.463 503.465C227.114 504.323 227.639 505.251 228.026 506.227C228.183 506.939 228.453 507.627 228.83 508.271C229.316 508.86 230.018 509.282 230.816 509.464C231.611 509.642 232.426 509.734 233.245 509.74L234.491 509.795C235.148 509.865 235.815 509.82 236.452 509.663C236.772 509.581 237.059 509.42 237.279 509.199C237.5 508.978 237.645 508.706 237.698 508.414C237.704 508.194 237.656 507.976 237.559 507.774C237.461 507.572 237.315 507.391 237.131 507.243Z" fill="#464353"/>
<path d="M242.836 469.906C242.288 470.317 241.621 470.584 240.912 470.679L238.8 471.138C238.679 471.145 238.561 471.175 238.454 471.225C238.347 471.276 238.252 471.346 238.178 471.43C238.059 471.629 238.14 471.872 238.084 472.088C238.062 472.173 238.017 472.253 237.953 472.32C237.654 472.555 237.263 472.678 236.864 472.662C236.516 472.651 236.17 472.698 235.842 472.8C235.705 472.852 235.587 472.936 235.5 473.043C235.394 473.182 235.344 473.353 235.232 473.48C235.041 473.665 234.783 473.784 234.503 473.817C234.214 473.877 233.921 473.917 233.625 473.938C232.452 474.031 231.273 473.84 230.212 473.386C229.964 473.231 229.659 473.166 229.359 473.204C229.184 473.26 229.035 473.367 228.935 473.507C228.826 473.657 228.708 473.801 228.581 473.938C228.039 474.458 227.092 474.319 226.314 474.176C225.828 474.082 225.342 474.005 224.856 473.933C221.932 473.574 218.984 473.389 216.031 473.38C212.201 473.275 208.377 473.182 204.678 472.381C203.869 472.209 202.891 471.828 202.934 471.06C202.934 470.64 203.333 470.281 203.333 469.862C203.333 469.149 202.343 468.757 201.552 468.646C201.838 464.735 204.485 461.316 205.861 457.598C206.204 456.675 206.484 455.731 206.845 454.836C208.521 450.726 212.208 447.566 215.272 444.141C215.743 443.662 216.13 443.122 216.418 442.539C216.68 441.843 216.817 441.114 216.822 440.379L216.991 437.8C221.479 437.525 225.989 437.774 230.405 438.54C230.697 438.568 230.969 438.688 231.171 438.877C231.266 439.014 231.323 439.169 231.339 439.33C231.514 440.269 231.632 441.219 231.701 442.169C231.705 442.378 231.739 442.586 231.8 442.788C231.92 443.043 232.084 443.28 232.286 443.489C234.883 446.412 236.434 449.986 237.679 453.593C238.925 457.2 239.915 460.868 241.485 464.371C242.02 465.58 242.73 466.939 242.867 468.237C243.112 468.463 243.246 468.765 243.24 469.077C243.234 469.39 243.089 469.688 242.836 469.906Z" fill="#464353"/>
<path opacity="0.1" d="M224.881 473.916C221.957 473.557 219.009 473.373 216.056 473.364L216.299 466.1C216.355 464.492 216.411 462.879 216.629 461.283C216.934 459.012 217.557 456.78 217.875 454.516C218.052 453.214 218.133 451.904 218.118 450.593C218.031 449.263 218.073 447.929 218.242 446.605C218.448 445.5 218.977 443.992 220.111 443.401C220.864 444.313 219.706 446.87 219.575 447.964C219.295 450.245 219.986 452.516 220.584 454.742C221.3 457.416 221.886 460.117 222.452 462.818C223.27 466.508 224.08 470.208 224.881 473.916Z" fill="black"/>
<path opacity="0.1" d="M233.65 473.938C232.477 474.031 231.298 473.84 230.237 473.386C229.989 473.231 229.684 473.166 229.384 473.204C229.209 473.26 229.06 473.367 228.96 473.507C227.958 469.287 228.014 464.89 227.217 460.625C226.936 459.101 226.544 457.548 226.874 456.04C227.229 454.422 228.381 453.019 228.83 451.422C229.068 450.366 229.152 449.287 229.079 448.213C229.019 447.257 228.757 446.32 228.306 445.451C229.359 445.605 230.218 446.522 230.642 447.351C231.098 448.388 231.33 449.491 231.327 450.605C231.495 453.289 231.52 455.968 231.476 458.653C231.42 459.904 231.451 461.157 231.57 462.404C231.726 463.636 232.068 464.84 232.193 466.072C232.323 467.552 232.13 469.066 232.535 470.491C232.847 471.64 233.557 472.8 233.65 473.938Z" fill="black"/>
<path opacity="0.1" d="M237.978 472.32C237.679 472.555 237.288 472.678 236.888 472.662C236.541 472.651 236.195 472.698 235.867 472.8L234.111 463.177C233.869 461.997 233.7 460.806 233.606 459.609C233.532 458.222 233.65 456.847 233.544 455.449C233.347 453.755 232.986 452.079 232.467 450.439C232.193 449.461 230.947 446.533 231.645 445.705C232.734 446.329 233.401 447.666 233.768 448.737C234.15 449.976 234.392 451.246 234.491 452.527C234.765 454.994 235.043 457.467 235.325 459.946C235.786 464.056 236.266 468.232 237.879 472.099C237.916 472.165 237.947 472.242 237.978 472.32Z" fill="black"/>
<path d="M247.158 426.774C247.937 426.188 248.721 425.597 249.444 424.951C250.455 423.997 251.389 422.982 252.24 421.912C253.194 420.846 253.988 419.675 254.6 418.427C255.223 416.974 255.435 415.322 256.543 414.118C256.671 413.962 256.846 413.841 257.048 413.77C257.671 413.593 258.15 414.322 258.293 414.875C258.885 417.72 257.478 420.559 256.101 423.161C255.704 424.052 255.121 424.869 254.382 425.569C253.951 425.898 253.5 426.206 253.031 426.492C252.339 426.99 251.701 427.545 251.125 428.149C250.141 429.143 249.195 430.176 248.304 431.242C247.263 432.607 246.107 433.899 244.848 435.109C243.579 436.324 241.901 437.142 240.065 437.441C240.588 437.374 240.413 434.645 240.357 434.303C240.276 433.8 239.89 433.198 239.878 432.728C239.878 432.132 240.139 432.043 240.7 431.624L247.158 426.774Z" fill="#EFB7B9"/>
<path opacity="0.1" d="M247.158 426.774C247.937 426.188 248.721 425.597 249.444 424.951C250.455 423.997 251.389 422.982 252.24 421.912C253.194 420.846 253.988 419.675 254.6 418.427C255.223 416.974 255.435 415.322 256.543 414.118C256.671 413.962 256.846 413.841 257.048 413.77C257.671 413.593 258.15 414.322 258.293 414.875C258.885 417.72 257.478 420.559 256.101 423.161C255.704 424.052 255.121 424.869 254.382 425.569C253.951 425.898 253.5 426.206 253.031 426.492C252.339 426.99 251.701 427.545 251.125 428.149C250.141 429.143 249.195 430.176 248.304 431.242C247.263 432.607 246.107 433.899 244.848 435.109C243.579 436.324 241.901 437.142 240.065 437.441C240.588 437.374 240.413 434.645 240.357 434.303C240.276 433.8 239.89 433.198 239.878 432.728C239.878 432.132 240.139 432.043 240.7 431.624L247.158 426.774Z" fill="black"/>
<path d="M225.149 409.56C225.149 409.56 223.355 417.454 221.294 418.791C219.233 420.128 232.56 421.68 232.56 421.68C232.56 421.68 232.859 415.372 236.415 412.477C239.971 409.582 225.149 409.56 225.149 409.56Z" fill="#EFB7B9"/>
<path d="M221.605 417.99C220.721 418.105 219.912 418.497 219.326 419.095C217.931 420.432 217.651 422.465 218.13 424.238C218.72 425.989 219.668 427.63 220.927 429.077C222.375 431.083 224.162 432.879 226.226 434.402C227.378 435.142 228.573 435.826 229.807 436.452C231.854 437.568 233.822 438.795 235.699 440.125C236.113 440.453 236.584 440.72 237.094 440.915C237.533 441.036 237.992 441.088 238.452 441.07C240.009 441.058 241.544 440.741 242.948 440.142C243.08 440.098 243.196 440.023 243.284 439.926C243.334 439.824 243.359 439.714 243.359 439.603C243.359 439.492 243.334 439.382 243.284 439.28C242.444 436.286 244.057 432.883 242.456 430.143C240.719 430.64 238.807 431.182 237.069 431.684C236.802 431.778 236.515 431.821 236.228 431.812C235.883 431.747 235.566 431.594 235.319 431.37C233.451 429.922 232.242 427.906 231.159 425.917C230.075 423.929 229.023 421.868 227.329 420.25C225.635 418.631 224.084 417.758 221.605 417.99Z" fill="#B3157B"/>
<path opacity="0.1" d="M221.605 417.99C220.721 418.105 219.912 418.497 219.326 419.095C217.931 420.432 217.651 422.465 218.13 424.238C218.72 425.989 219.668 427.63 220.927 429.077C222.375 431.083 224.162 432.879 226.226 434.402C227.378 435.142 228.573 435.826 229.807 436.452C231.854 437.568 233.822 438.795 235.699 440.125C236.113 440.453 236.584 440.72 237.094 440.915C237.533 441.036 237.992 441.088 238.452 441.07C240.009 441.058 241.544 440.741 242.948 440.142C243.08 440.098 243.196 440.023 243.284 439.926C243.334 439.824 243.359 439.714 243.359 439.603C243.359 439.492 243.334 439.382 243.284 439.28C242.444 436.286 244.057 432.883 242.456 430.143C240.719 430.64 238.807 431.182 237.069 431.684C236.802 431.778 236.515 431.821 236.228 431.812C235.883 431.747 235.566 431.594 235.319 431.37C233.451 429.922 232.242 427.906 231.159 425.917C230.075 423.929 229.023 421.868 227.329 420.25C225.635 418.631 224.084 417.758 221.605 417.99Z" fill="black"/>
<path d="M232.118 415.477C237.03 415.477 241.011 411.945 241.011 407.588C241.011 403.232 237.03 399.7 232.118 399.7C227.206 399.7 223.225 403.232 223.225 407.588C223.225 411.945 227.206 415.477 232.118 415.477Z" fill="#EFB7B9"/>
<path d="M235.668 430.298V430.331C235.151 431.176 234.385 431.889 233.855 432.728C233.308 433.708 232.936 434.757 232.753 435.839C232.585 436.557 232.436 437.275 232.299 437.999C232.162 438.722 232.024 439.462 231.9 440.208C229.216 439.402 226.239 440.761 223.455 440.263C222.64 440.044 221.807 439.877 220.964 439.766C220.341 439.766 219.718 439.866 219.096 439.816C218.068 439.728 217.047 439.153 216.063 439.446C215.627 439.578 215.085 439.855 214.767 439.551C214.695 439.47 214.64 439.378 214.605 439.28C214.283 438.679 214.168 438.006 214.275 437.347C214.508 436.82 214.82 436.324 215.203 435.872C215.679 434.983 215.926 434.011 215.926 433.027C216.106 430.491 216.1 427.934 216.548 425.426C216.997 422.918 218.006 420.421 219.918 418.526C220.8 417.541 222.071 416.89 223.474 416.703C228.618 416.333 232.772 418.846 235.02 422.84C236.347 425.149 237.057 428.005 235.668 430.298Z" fill="#B3157B"/>
<path d="M250.714 427.829C251.499 427.238 252.284 426.652 253 426C254.013 425.05 254.947 424.037 255.796 422.967C256.755 421.901 257.55 420.727 258.163 419.476C258.785 418.029 258.991 416.377 260.106 415.173C260.229 415.016 260.403 414.895 260.604 414.825C261.227 414.648 261.706 415.377 261.85 415.93C262.472 418.775 261.027 421.62 259.651 424.216C259.258 425.108 258.677 425.926 257.938 426.624C257.521 426.967 257.035 427.238 256.587 427.541C255.892 428.037 255.254 428.592 254.681 429.199C253.693 430.2 252.751 431.231 251.854 432.292C250.813 433.655 249.66 434.947 248.404 436.159C247.131 437.373 245.452 438.192 243.614 438.496C244.144 438.429 243.969 435.695 243.913 435.352C243.721 434.838 243.561 434.314 243.434 433.784C243.434 433.181 243.695 433.093 244.25 432.679L250.714 427.829Z" fill="#EFB7B9"/>
<path opacity="0.1" d="M234.777 430.563V430.596C234.267 431.441 233.494 432.149 232.965 432.994C232.416 433.973 232.044 435.022 231.863 436.104C231.701 436.822 231.545 437.54 231.408 438.264C230.333 437.722 229.293 437.126 228.294 436.479C226.226 434.958 224.436 433.162 222.988 431.154C221.729 429.707 220.782 428.066 220.192 426.315C219.712 424.542 219.992 422.509 221.394 421.172C221.981 420.583 222.788 420.201 223.667 420.095C226.158 419.857 227.715 420.708 229.409 422.305C231.103 423.901 232.155 425.978 233.239 427.972C233.725 428.862 234.217 429.734 234.777 430.563Z" fill="black"/>
<path d="M225.161 419.04C224.279 419.156 223.473 419.547 222.888 420.145C221.487 421.481 221.207 423.514 221.693 425.288C222.178 427.061 223.312 428.602 224.483 430.127C225.934 432.132 227.723 433.928 229.789 435.452C230.938 436.189 232.132 436.872 233.363 437.496C235.411 438.611 237.379 439.838 239.255 441.169C239.667 441.5 240.139 441.767 240.65 441.959C241.091 442.082 241.552 442.136 242.014 442.12C243.571 442.102 245.106 441.783 246.51 441.186C246.643 441.143 246.759 441.068 246.847 440.971C246.896 440.869 246.922 440.76 246.922 440.65C246.922 440.54 246.896 440.431 246.847 440.33C246.012 437.33 247.625 433.927 246.025 431.187L240.631 432.728C240.365 432.825 240.078 432.868 239.791 432.856C239.447 432.789 239.132 432.638 238.881 432.419C237.013 430.972 235.805 428.956 234.721 426.961C233.637 424.967 232.591 422.918 230.891 421.299C229.191 419.681 227.64 418.791 225.161 419.04Z" fill="#B3157B"/>
<path d="M237.866 402.075C238.732 401.208 238.545 399.799 237.791 398.855C236.953 397.953 235.886 397.239 234.678 396.772C232.84 395.905 230.729 395.071 228.755 395.667C227.998 395.939 227.272 396.273 226.588 396.667C225.28 397.313 223.835 397.722 222.502 398.324C221.117 398.865 219.989 399.819 219.313 401.02C218.753 402.219 218.927 403.572 219.077 404.887C219.362 406.884 219.377 408.903 219.12 410.903C218.856 412.913 217.982 414.822 216.592 416.427C215.589 417.532 214.263 418.427 213.659 419.741C213.364 420.492 213.198 421.278 213.167 422.073L212.843 425.464C212.718 426.818 212.525 428.293 211.423 429.237C212.591 429.13 213.723 428.814 214.75 428.309C215.778 427.804 216.68 427.12 217.402 426.299C218.529 425.194 219.7 424.023 220.036 422.564C220.291 421.459 220.08 420.239 220.827 419.349C221.705 418.3 223.58 418.289 224.825 418.985C226.071 419.681 226.837 420.874 227.503 422.039C228.169 423.205 228.836 424.426 229.994 425.249C230.937 425.886 232.047 426.301 233.22 426.453C233.605 426.555 234.009 426.582 234.407 426.533C234.804 426.485 235.185 426.361 235.525 426.171C236.378 425.564 236.291 424.398 236.017 423.459C235.649 422.216 235.082 420.924 235.481 419.681C235.612 419.272 235.842 418.885 235.985 418.476C236.16 417.881 236.242 417.268 236.228 416.653C236.309 413.571 236.471 410.251 235.344 407.262C234.983 406.312 234.011 405.406 234.509 404.379C235.138 403.075 236.926 403.031 237.866 402.075Z" fill="#464353"/>
<g opacity="0.1">
<path opacity="0.1" d="M219.307 407.356C219.354 405.899 219.285 404.441 219.102 402.992C219.102 402.711 219.033 402.44 219.008 402.136C218.928 403.037 218.959 403.943 219.102 404.837C219.195 405.671 219.27 406.511 219.307 407.356Z" fill="black"/>
<path opacity="0.1" d="M235.537 424.277C235.197 424.465 234.816 424.588 234.419 424.636C234.022 424.685 233.617 424.658 233.233 424.558C232.06 424.406 230.95 423.991 230.007 423.354C228.861 422.525 228.201 421.305 227.516 420.145C226.831 418.985 226.083 417.78 224.838 417.09C223.592 416.399 221.724 416.405 220.839 417.454C220.092 418.344 220.304 419.581 220.048 420.669C219.712 422.128 218.541 423.304 217.414 424.404C216.844 425.005 216.199 425.546 215.49 426.017C214.604 426.517 213.629 426.879 212.606 427.088C212.464 427.875 212.056 428.606 211.435 429.182C212.604 429.075 213.735 428.759 214.763 428.254C215.79 427.749 216.692 427.065 217.414 426.243C218.541 425.138 219.712 423.967 220.048 422.509C220.304 421.404 220.092 420.183 220.839 419.294C221.717 418.244 223.592 418.233 224.838 418.929C226.083 419.625 226.849 420.819 227.516 421.984C228.182 423.15 228.848 424.371 230.007 425.194C230.95 425.831 232.06 426.245 233.233 426.398C233.617 426.499 234.022 426.527 234.419 426.478C234.817 426.429 235.198 426.306 235.537 426.116C236.334 425.564 236.309 424.459 236.079 423.586C235.972 423.856 235.785 424.094 235.537 424.277Z" fill="black"/>
<path opacity="0.1" d="M237.866 400.236C236.926 401.186 235.138 401.236 234.522 402.501C234.415 402.759 234.374 403.035 234.401 403.309C234.428 403.583 234.522 403.848 234.678 404.086C235.394 403.064 236.994 402.981 237.866 402.075C238.162 401.74 238.354 401.342 238.423 400.92C238.492 400.499 238.435 400.068 238.259 399.672C238.166 399.879 238.034 400.07 237.866 400.236Z" fill="black"/>
<path opacity="0.1" d="M236.241 414.759C236.254 415.373 236.172 415.987 235.998 416.582C235.855 416.99 235.624 417.371 235.493 417.786C235.325 418.409 235.325 419.058 235.493 419.681V419.625C235.624 419.217 235.855 418.83 235.998 418.421C236.172 417.826 236.254 417.213 236.241 416.598C236.272 415.372 236.315 414.112 236.291 412.847C236.278 413.488 236.259 414.129 236.241 414.759Z" fill="black"/>
</g>
<path d="M652.527 454.698C652.527 482.451 672.157 504.912 696.415 504.912L652.527 454.698Z" fill="#46455B"/>
<path d="M696.415 504.918C696.415 476.85 718.324 454.14 745.397 454.14L696.415 504.918Z" fill="#B3157B"/>
<path d="M668.433 457.217C668.433 483.583 680.951 504.918 696.415 504.918L668.433 457.217Z" fill="#B3157B"/>
<path d="M696.415 504.918C696.415 469.055 721.737 440.031 753.026 440.031L696.415 504.918Z" fill="#46455B"/>
<path opacity="0.1" d="M694.515 514.507C700.541 514.507 705.426 513.775 705.426 512.872C705.426 511.969 700.541 511.237 694.515 511.237C688.489 511.237 683.604 511.969 683.604 512.872C683.604 513.775 688.489 514.507 694.515 514.507Z" fill="#B3157B"/>
<path d="M687.185 505.271C687.185 505.271 693.413 505.1 695.282 503.918C697.15 502.735 704.854 501.316 705.321 503.216C705.788 505.116 714.663 512.668 707.644 512.718C700.625 512.767 691.314 511.745 689.446 510.734C687.578 509.723 687.185 505.271 687.185 505.271Z" fill="#A8A8A8"/>
<path opacity="0.2" d="M707.774 512.055C700.749 512.104 691.451 511.082 689.577 510.072C688.151 509.304 687.584 506.536 687.391 505.266H687.185C687.185 505.266 687.578 509.718 689.452 510.729C691.327 511.74 700.625 512.762 707.65 512.712C709.68 512.712 710.377 512.055 710.34 511.11C710.06 511.685 709.288 512.044 707.774 512.055Z" fill="black"/>
</g>
<defs>
<clipPath id="clip0">
<rect width="637.729" height="445.265" fill="white" transform="translate(136.789 84.0192)"/>
</clipPath>
</defs>
</svg>
