<svg width="178" height="128" viewBox="0 0 178 128" fill="none" xmlns="http://www.w3.org/2000/svg">
<path fill-rule="evenodd" clip-rule="evenodd" d="M130.885 1.22581C130.114 1.51318 129.332 1.80849 128.536 2.11188C127.755 2.40998 125.088 3.43149 124.722 3.57115C104.008 11.4871 91.0358 14.4854 68.6535 14.5983C46.4483 14.7103 35.4293 12.1068 15.3548 4.14061C13.2844 3.31901 11.3055 2.55254 9.39742 1.83855L-4.06087 1.90643C1.37539 3.46902 7.06776 5.53076 13.7694 8.19015C34.3128 16.3424 45.841 19.0662 68.6754 18.9511C91.6475 18.8352 105.099 15.726 126.257 7.64064C126.625 7.49993 129.29 6.47915 130.068 6.18241C135.408 4.14585 140.126 2.48625 144.58 1.15674L130.885 1.22581ZM131.104 44.7535C148.209 38.373 159.397 35.905 176.858 35.8169V35.8169L176.88 40.1697C164.462 40.2323 155.373 41.5282 144.799 44.6844L131.104 44.7535V44.7535ZM9.61696 45.3662C-7.40763 38.9958 -18.7986 36.8038 -39.3318 36.9073L-39.3098 41.2601C-24.5175 41.1855 -14.6893 42.316 -3.84133 45.4341L9.61696 45.3662L9.61696 45.3662ZM176.748 14.0531C158.501 14.1451 147.104 16.8364 128.646 23.8757C127.864 24.1738 125.198 25.1953 124.832 25.335C104.118 33.2509 91.1455 36.2492 68.7633 36.3621C46.5581 36.4741 35.5391 33.8706 15.4646 25.9044C-5.07887 17.7522 -16.6071 15.0283 -39.4415 15.1435L-39.4196 19.4963C-17.2144 19.3843 -6.1954 21.9878 13.8791 29.954C34.4226 38.1062 45.9508 40.8301 68.7852 40.7149C91.7572 40.599 105.209 37.4899 126.367 29.4045C126.735 29.2637 129.4 28.243 130.178 27.9462C148.195 21.075 159.122 18.4949 176.77 18.4059L176.748 14.0531V14.0531Z" fill="#0D4C5E"/>
<path fill-rule="evenodd" clip-rule="evenodd" d="M131.104 44.7543C130.334 45.0416 129.551 45.3369 128.756 45.6403C127.974 45.9384 125.307 46.9599 124.942 47.0996C104.227 55.0155 91.2553 58.0138 68.873 58.1267C46.6679 58.2387 35.6489 55.6352 15.5743 47.669C13.5039 46.8474 11.5251 46.081 9.61697 45.367L-3.84133 45.4349C1.59494 46.9974 7.28731 49.0592 13.9889 51.7186C34.5323 59.8708 46.0606 62.5946 68.895 62.4794C91.867 62.3636 105.319 59.2544 126.477 51.169C126.845 51.0283 129.51 50.0076 130.288 49.7108C135.628 47.6743 140.345 46.0147 144.799 44.6852L131.104 44.7543ZM131.324 88.2816C148.429 81.9013 159.617 79.4332 177.078 79.3452V79.3452L177.1 83.6979C164.682 83.7606 155.592 85.0564 145.019 88.2126L131.324 88.2816V88.2816ZM9.8365 88.8944C-7.18809 82.524 -18.5791 80.332 -39.1122 80.4356L-39.0903 84.7883C-24.298 84.7137 -14.4698 85.8442 -3.62179 88.9623L9.8365 88.8944L9.8365 88.8944ZM176.968 57.5815C158.721 57.6735 147.324 60.3647 128.866 67.404C128.084 67.7021 125.417 68.7236 125.052 68.8633C104.337 76.7792 91.3651 79.7775 68.9828 79.8904C46.7776 80.0024 35.7586 77.3989 15.6841 69.4327C-4.85932 61.2805 -16.3876 58.5567 -39.222 58.6719L-39.2 63.0246C-16.9948 62.9126 -5.97585 65.5161 14.0987 73.4823C34.6421 81.6345 46.1703 84.3583 69.0047 84.2431C91.9768 84.1273 105.429 81.0181 126.586 72.9327C126.955 72.792 129.62 71.7713 130.398 71.4745C148.415 64.6034 159.341 62.0232 176.99 61.9342L176.968 57.5815V57.5815Z" fill="#0D4C5E"/>
<path fill-rule="evenodd" clip-rule="evenodd" d="M131.319 87.3835C130.549 87.6708 129.766 87.9661 128.971 88.2695C128.189 88.5676 125.522 89.5891 125.157 89.7288C104.442 97.6447 91.4703 100.643 69.088 100.756C46.8829 100.868 35.8639 98.2644 15.7894 90.2982C13.7189 89.4766 11.7401 88.7102 9.83198 87.9962L-3.62633 88.0641C1.80993 89.6266 7.50233 91.6884 14.2039 94.3478C34.7473 102.5 46.2756 105.224 69.11 105.109C92.082 104.993 105.534 101.884 126.692 93.7983C127.06 93.6575 129.725 92.6368 130.503 92.34C135.843 90.3035 140.56 88.6439 145.014 87.3144L131.319 87.3835ZM177.183 100.211C158.936 100.303 147.539 102.994 129.081 110.033C128.299 110.331 125.632 111.353 125.267 111.492C104.552 119.408 91.5801 122.407 69.1978 122.52C46.9926 122.632 35.9736 120.028 15.8991 112.062C-4.64431 103.91 -16.1726 101.186 -39.007 101.301L-38.985 105.654C-16.7799 105.542 -5.76084 108.145 14.3137 116.111C34.8571 124.264 46.3853 126.988 69.2198 126.872C92.1918 126.756 105.644 123.647 126.801 115.562C127.17 115.421 129.835 114.4 130.613 114.104C148.63 107.233 159.556 104.652 177.205 104.563L177.183 100.211Z" fill="#0D4C5E"/>
</svg>
