<svg
  width="182"
  height="131"
  viewBox="0 0 182 131"
  fill="none"
  xmlns="http://www.w3.org/2000/svg"
>
  <path
    fill-rule="evenodd"
    clip-rule="evenodd"
    d="M51.093 130.959C51.954 130.663 52.8285 130.358 53.7177 130.045C54.5914 129.738 57.5722 128.685 57.9807 128.541C81.1341 120.379 95.6225 117.314 120.593 117.314C145.365 117.314 157.643 120.093 179.993 128.522C182.298 129.391 184.502 130.203 186.626 130.959H201.64C195.585 129.297 189.246 127.113 181.785 124.299C158.912 115.673 146.067 112.766 120.593 112.766C94.9646 112.766 79.9404 115.944 56.2914 124.28C55.8799 124.426 52.9012 125.478 52.0315 125.784C46.0627 127.884 40.7909 129.593 35.8146 130.959H51.093ZM51.093 85.4771C31.9752 92.0536 19.4799 94.5734 0 94.5734H0L0 90.0252C13.8535 90.0252 24.0013 88.7191 35.8146 85.4771H51.093V85.4771ZM186.626 85.4771C205.583 92.223 218.278 94.5734 241.185 94.5734V90.0252C224.683 90.0252 213.725 88.7922 201.64 85.4771L186.626 85.4771V85.4771ZM0 117.314C20.3572 117.314 33.0866 114.562 53.7177 107.304C54.5914 106.997 57.5722 105.944 57.9807 105.8C81.1341 97.6378 95.6225 94.5734 120.593 94.5734C145.365 94.5734 157.643 97.3518 179.993 105.781C202.865 114.407 215.711 117.314 241.185 117.314V112.766C216.413 112.766 204.135 109.988 181.785 101.558C158.912 92.932 146.067 90.0252 120.593 90.0252C94.9646 90.0252 79.9404 93.203 56.2914 101.54C55.8799 101.685 52.9012 102.737 52.0315 103.043C31.8932 110.128 19.6892 112.766 0 112.766L0 117.314H0Z"
    fill="#0D4C5E"
  />
  <path
    fill-rule="evenodd"
    clip-rule="evenodd"
    d="M51.093 85.477C51.954 85.1808 52.8285 84.8764 53.7177 84.5636C54.5914 84.2562 57.5722 83.203 57.9807 83.059C81.1341 74.897 95.6225 71.8326 120.593 71.8326C145.365 71.8326 157.643 74.611 179.993 83.0403C182.298 83.9097 184.502 84.721 186.626 85.477H201.64C195.585 83.8157 189.246 81.6315 181.785 78.8175C158.912 70.1913 146.067 67.2845 120.593 67.2845C94.9646 67.2845 79.9404 70.4622 56.2914 78.7988C55.8799 78.9439 52.9012 79.9964 52.0315 80.3024C46.0627 82.4022 40.7909 84.1114 35.8146 85.477H51.093ZM51.093 39.9956C31.9752 46.5721 19.4799 49.0919 0 49.0919H0L0 44.5437C13.8535 44.5437 24.0013 43.2376 35.8146 39.9956H51.093V39.9956ZM186.626 39.9956C205.583 46.7415 218.278 49.0919 241.185 49.0919V44.5437C224.683 44.5437 213.725 43.3108 201.64 39.9956L186.626 39.9956V39.9956ZM0 71.8326C20.3572 71.8326 33.0866 69.0807 53.7177 61.8229C54.5914 61.5155 57.5722 60.4622 57.9807 60.3182C81.1341 52.1563 95.6225 49.0919 120.593 49.0919C145.365 49.0919 157.643 51.8703 179.993 60.2996C202.865 68.9258 215.711 71.8326 241.185 71.8326V67.2845C216.413 67.2845 204.135 64.5061 181.785 56.0768C158.912 47.4505 146.067 44.5437 120.593 44.5437C94.9646 44.5437 79.9404 47.7215 56.2914 56.0581C55.8799 56.2032 52.9012 57.2557 52.0315 57.5617C31.8932 64.6462 19.6892 67.2845 0 67.2845L0 71.8326H0Z"
    fill="#0D4C5E"
  />
  <path
    fill-rule="evenodd"
    clip-rule="evenodd"
    d="M51.093 40.9333C51.9541 40.6371 52.8285 40.3327 53.7177 40.0199C54.5914 39.7125 57.5722 38.6592 57.9807 38.5152C81.1341 30.3533 95.6225 27.2889 120.593 27.2889C145.365 27.2889 157.643 30.0673 179.993 38.4966C182.298 39.366 184.502 40.1773 186.626 40.9333H201.64C195.585 39.272 189.246 37.0878 181.785 34.2738C158.912 25.6475 146.067 22.7407 120.593 22.7407C94.9646 22.7407 79.9404 25.9185 56.2914 34.2551C55.8799 34.4002 52.9012 35.4527 52.0315 35.7587C46.0627 37.8584 40.7909 39.5676 35.8146 40.9333H51.093ZM0 27.2889C20.3572 27.2889 33.0866 24.537 53.7177 17.2791C54.5914 16.9718 57.5722 15.9185 57.9807 15.7745C81.1341 7.61258 95.6225 4.54815 120.593 4.54815C145.365 4.54815 157.643 7.32654 179.993 15.7559C202.865 24.3821 215.711 27.2889 241.185 27.2889V22.7407C216.413 22.7407 204.135 19.9623 181.785 11.533C158.912 2.90679 146.067 0 120.593 0C94.9646 0 79.9404 3.17776 56.2914 11.5144C55.8799 11.6595 52.9012 12.712 52.0315 13.0179C31.8932 20.1024 19.6892 22.7407 0 22.7407L0 27.2889Z"
    fill="#0D4C5E"
  />
</svg>
